<svg width="682" height="97" viewBox="0 0 682 97" fill="none" xmlns="http://www.w3.org/2000/svg">
<path d="M30.7969 88V95H37.7969V88H30.7969ZM7.5 88H0.5V95H7.5V88ZM7.5 13.2344V6.23438H0.5V13.2344H7.5ZM30.7969 13.2344H37.7969V6.23438H30.7969V13.2344ZM30.7969 39.5312H23.7969V65.9311L36.8772 42.9996L30.7969 39.5312ZM45.7969 13.2344V6.23438H41.731L39.7165 9.76607L45.7969 13.2344ZM73.9219 13.2344L79.9299 16.8266L86.2629 6.23438H73.9219V13.2344ZM52.5938 48.9062L46.5857 45.3141L44.4936 48.8133L46.5048 52.3595L52.5938 48.9062ZM74.7656 88V95H86.7831L80.8545 84.5467L74.7656 88ZM46.5938 88L40.321 91.1068L42.2492 95H46.5938V88ZM34.2656 63.1094L40.5384 60.0025L35.7051 50.2441L28.8347 58.693L34.2656 63.1094ZM30.7969 67.375L25.3659 62.9586L23.7969 64.8881V67.375H30.7969ZM30.7969 81H7.5V95H30.7969V81ZM14.5 88V13.2344H0.5V88H14.5ZM7.5 20.2344H30.7969V6.23438H7.5V20.2344ZM23.7969 13.2344V39.5312H37.7969V13.2344H23.7969ZM36.8772 42.9996L51.8772 16.7027L39.7165 9.76607L24.7165 36.0629L36.8772 42.9996ZM45.7969 20.2344H73.9219V6.23438H45.7969V20.2344ZM67.9139 9.6422L46.5857 45.3141L58.6018 52.4984L79.9299 16.8266L67.9139 9.6422ZM46.5048 52.3595L68.6767 91.4533L80.8545 84.5467L58.6827 45.453L46.5048 52.3595ZM74.7656 81H46.5938V95H74.7656V81ZM52.8665 84.8932L40.5384 60.0025L27.9929 66.2162L40.321 91.1068L52.8665 84.8932ZM28.8347 58.693L25.3659 62.9586L36.2278 71.7914L39.6966 67.5258L28.8347 58.693ZM23.7969 67.375V88H37.7969V67.375H23.7969ZM151.219 66.8594H158.219V59.8452L151.205 59.8594L151.219 66.8594ZM150.984 73.1875L157.962 73.7413L157.963 73.7327L150.984 73.1875ZM149.812 78.7188L143.234 76.3265L143.221 76.3609L143.209 76.3954L149.812 78.7188ZM147.047 83.2656L141.922 78.4979L141.891 78.5302L141.862 78.5629L147.047 83.2656ZM141.984 86.7344L144.81 93.1388L144.832 93.1293L144.853 93.1196L141.984 86.7344ZM133.969 88.8906L132.894 81.9736L132.856 81.9795L132.818 81.9859L133.969 88.8906ZM110.391 88.8438L109.186 95.7393L109.197 95.7412L110.391 88.8438ZM97.4062 83.3594L92.3313 88.1806L92.3617 88.2127L92.3926 88.2444L97.4062 83.3594ZM94.7812 79.4688L88.3024 82.1192L88.3132 82.1455L88.3242 82.1717L94.7812 79.4688ZM93.75 75.3438L86.7662 75.8199L86.7716 75.8988L86.7787 75.9775L93.75 75.3438ZM93.75 39.3438L86.7787 38.71L86.7716 38.7887L86.7662 38.8676L93.75 39.3438ZM97.4062 31.4219L102.42 36.3069L102.451 36.2752L102.481 36.2431L97.4062 31.4219ZM110.391 25.8906L109.197 18.9932L109.186 18.9951L110.391 25.8906ZM141.984 28.1406L139.159 34.545L139.176 34.5526L139.193 34.5601L141.984 28.1406ZM147.047 31.4219L142.035 36.3086L142.097 36.372L142.16 36.4339L147.047 31.4219ZM151.031 39.3906L144.074 40.1636L144.075 40.1723L144.076 40.181L151.031 39.3906ZM151.266 60.8594V67.8594H158.266V60.8594H151.266ZM116.906 60.8594V53.8594H109.906V60.8594H116.906ZM116.906 76.8906H109.906V83.8906H116.906V76.8906ZM127.969 76.8906V83.8906H134.969V76.8906H127.969ZM127.969 66.9062L127.955 59.9063L120.969 59.9203V66.9062H127.969ZM116.906 52.5156H109.906V59.5156H116.906V52.5156ZM127.969 52.5156V59.5156H134.969V52.5156H127.969ZM127.969 38.3125H134.969V31.3125H127.969V38.3125ZM116.906 38.3125V31.3125H109.906V38.3125H116.906ZM144.219 66.8594C144.219 68.915 144.146 70.8415 144.006 72.6423L157.963 73.7327C158.135 71.5335 158.219 69.2413 158.219 66.8594H144.219ZM144.006 72.6337C143.896 74.0243 143.627 75.245 143.234 76.3265L156.391 81.111C157.248 78.755 157.76 76.2882 157.962 73.7413L144.006 72.6337ZM143.209 76.3954C142.943 77.1514 142.534 77.84 141.922 78.4979L152.172 88.0334C154.06 86.0038 155.494 83.6611 156.416 81.0421L143.209 76.3954ZM141.862 78.5629C141.455 79.011 140.647 79.6613 139.116 80.3492L144.853 93.1196C147.634 91.87 150.201 90.2078 152.232 87.9683L141.862 78.5629ZM139.159 80.33C137.766 80.9443 135.731 81.5329 132.894 81.9736L135.043 95.8077C138.644 95.2484 141.952 94.3995 144.81 93.1388L139.159 80.33ZM132.818 81.9859C130.132 82.4335 126.652 82.6875 122.297 82.6875V96.6875C127.13 96.6875 131.43 96.4103 135.12 95.7954L132.818 81.9859ZM122.297 82.6875C117.857 82.6875 114.314 82.4188 111.584 81.9463L109.197 95.7412C112.967 96.3937 117.361 96.6875 122.297 96.6875V82.6875ZM111.596 81.9483C108.728 81.4471 106.645 80.8266 105.2 80.1893L99.5495 92.9982C102.355 94.2359 105.616 95.1154 109.186 95.7392L111.596 81.9483ZM105.2 80.1893C103.615 79.49 102.799 78.8634 102.42 78.4743L92.3926 88.2444C94.3886 90.2929 96.8847 91.8225 99.5495 92.9982L105.2 80.1893ZM102.481 78.5381C101.774 77.7938 101.418 77.1959 101.238 76.7658L88.3242 82.1717C89.2691 84.4291 90.6634 86.425 92.3313 88.1806L102.481 78.5381ZM101.26 76.8183C100.941 76.0385 100.779 75.3414 100.721 74.71L86.7787 75.9775C86.9713 78.0961 87.4964 80.149 88.3024 82.1192L101.26 76.8183ZM100.734 74.8676C100.65 73.6352 100.609 72.4823 100.609 71.4062H86.6094C86.6094 72.8302 86.6627 74.3023 86.7662 75.8199L100.734 74.8676ZM100.609 71.4062V43.2812H86.6094V71.4062H100.609ZM100.609 43.2812C100.609 42.2052 100.65 41.0523 100.734 39.8199L86.7662 38.8676C86.6627 40.3852 86.6094 41.8573 86.6094 43.2812H100.609ZM100.721 39.9775C100.778 39.3528 100.937 38.6894 101.238 37.9686L88.3242 32.5627C87.5009 34.5294 86.972 36.5847 86.7787 38.71L100.721 39.9775ZM101.238 37.9686C101.409 37.5607 101.745 36.9997 102.42 36.3069L92.3926 26.5368C90.6927 28.2815 89.2784 30.2831 88.3242 32.5627L101.238 37.9686ZM102.481 36.2431C102.851 35.8538 103.646 35.231 105.2 34.545L99.5495 21.7362C96.8544 22.9252 94.3364 24.49 92.3313 26.6006L102.481 36.2431ZM105.2 34.545C106.645 33.9077 108.728 33.2872 111.596 32.7861L109.186 18.9951C105.616 19.619 102.355 20.4985 99.5495 21.7362L105.2 34.545ZM111.584 32.7881C114.314 32.3156 117.857 32.0469 122.297 32.0469V18.0469C117.361 18.0469 112.967 18.3406 109.197 18.9932L111.584 32.7881ZM122.297 32.0469C126.601 32.0469 130.064 32.3144 132.764 32.7861L135.174 18.9951C131.436 18.3419 127.118 18.0469 122.297 18.0469V32.0469ZM132.764 32.7861C135.631 33.2872 137.714 33.9077 139.159 34.545L144.81 21.7362C142.004 20.4985 138.744 19.619 135.174 18.9951L132.764 32.7861ZM139.193 34.5601C140.789 35.2537 141.628 35.8917 142.035 36.3086L152.059 26.5352C150.028 24.452 147.493 22.9025 144.775 21.7211L139.193 34.5601ZM142.16 36.4339C142.909 37.1635 143.303 37.7671 143.512 38.2177L156.206 32.3135C155.166 30.0766 153.685 28.1177 151.934 26.4099L142.16 36.4339ZM143.512 38.2177C143.832 38.9059 144.006 39.5473 144.074 40.1636L157.988 38.6176C157.744 36.4215 157.136 34.3128 156.206 32.3135L143.512 38.2177ZM144.076 40.181C144.206 41.328 144.266 42.3591 144.266 43.2812H158.266C158.266 41.7659 158.169 40.2032 157.986 38.6003L144.076 40.181ZM144.266 43.2812V60.8594H158.266V43.2812H144.266ZM151.266 53.8594H116.906V67.8594H151.266V53.8594ZM109.906 60.8594V76.8906H123.906V60.8594H109.906ZM116.906 83.8906H127.969V69.8906H116.906V83.8906ZM134.969 76.8906V66.9062H120.969V76.8906H134.969ZM127.983 73.9062L151.233 73.8594L151.205 59.8594L127.955 59.9063L127.983 73.9062ZM116.906 59.5156H127.969V45.5156H116.906V59.5156ZM134.969 52.5156V38.3125H120.969V52.5156H134.969ZM127.969 31.3125H116.906V45.3125H127.969V31.3125ZM109.906 38.3125V52.5156H123.906V38.3125H109.906ZM159.375 27.0625V20.0625H150.496L152.568 28.6961L159.375 27.0625ZM183.562 27.0625L190.519 26.2799L189.819 20.0625H183.562V27.0625ZM188.203 68.3125L181.247 69.0951L195.157 69.1107L188.203 68.3125ZM192.938 27.0625V20.0625H186.695L185.983 26.2643L192.938 27.0625ZM217.172 27.0625L223.98 28.6912L226.044 20.0625H217.172V27.0625ZM202.594 88V95H208.117L209.402 89.6287L202.594 88ZM174 88L167.193 89.6336L168.481 95H174V88ZM159.375 34.0625H183.562V20.0625H159.375V34.0625ZM176.606 27.8451L181.247 69.0951L195.159 67.5299L190.519 26.2799L176.606 27.8451ZM195.157 69.1107L199.892 27.8607L185.983 26.2643L181.249 67.5143L195.157 69.1107ZM192.938 34.0625H217.172V20.0625H192.938V34.0625ZM210.364 25.4338L195.786 86.3713L209.402 89.6287L223.98 28.6912L210.364 25.4338ZM202.594 81H174V95H202.594V81ZM180.807 86.3664L166.182 25.4289L152.568 28.6961L167.193 89.6336L180.807 86.3664ZM254.016 88V95H261.016V88H254.016ZM230.719 88H223.719V95H230.719V88ZM230.719 27.0625V20.0625H223.719V27.0625H230.719ZM254.016 27.0625H261.016V20.0625H254.016V27.0625ZM254.016 7.84375H261.016V0.84375H254.016V7.84375ZM254.016 18.9531V25.9531H261.016V18.9531H254.016ZM230.719 18.9531H223.719V25.9531H230.719V18.9531ZM230.719 7.84375V0.84375H223.719V7.84375H230.719ZM254.016 81H230.719V95H254.016V81ZM237.719 88V27.0625H223.719V88H237.719ZM230.719 34.0625H254.016V20.0625H230.719V34.0625ZM247.016 27.0625V88H261.016V27.0625H247.016ZM247.016 7.84375V18.9531H261.016V7.84375H247.016ZM254.016 11.9531H230.719V25.9531H254.016V11.9531ZM237.719 18.9531V7.84375H223.719V18.9531H237.719ZM230.719 14.8438H254.016V0.84375H230.719V14.8438ZM267.281 88H260.281V95H267.281V88ZM267.281 27.0625V20.0625H260.281V27.0625H267.281ZM286.547 27.0625L293.296 25.2036L291.879 20.0625H286.547V27.0625ZM288.703 34.8906L281.954 36.7495L286.801 54.3464L294.964 38.0211L288.703 34.8906ZM291.891 30.625L296.654 35.7546L296.686 35.7245L296.718 35.694L291.891 30.625ZM296.297 27.5312L299.427 33.7922L299.475 33.7683L299.523 33.7437L296.297 27.5312ZM301.5 25.6562L303.006 32.4923L303.061 32.4801L303.116 32.4671L301.5 25.6562ZM313.641 26.0781L311.398 32.7091L311.412 32.714L311.427 32.7189L313.641 26.0781ZM319.359 29.3594L314.715 34.5967L314.767 34.6429L314.82 34.6881L319.359 29.3594ZM323.391 34.8438L317.009 37.72L317.026 37.7572L317.043 37.7942L323.391 34.8438ZM324.938 88V95H331.938V88H324.938ZM301.641 88H294.641V95H301.641V88ZM301.641 38.3125H308.641V31.3125H301.641V38.3125ZM290.578 38.3125V31.3125H283.578V38.3125H290.578ZM290.578 88V95H297.578V88H290.578ZM274.281 88V27.0625H260.281V88H274.281ZM267.281 34.0625H286.547V20.0625H267.281V34.0625ZM279.798 28.9214L281.954 36.7495L295.452 33.0317L293.296 25.2036L279.798 28.9214ZM294.964 38.0211C295.407 37.1359 295.965 36.3938 296.654 35.7546L287.127 25.4954C285.191 27.2937 283.625 29.3954 282.442 31.7601L294.964 38.0211ZM296.718 35.694C297.526 34.9245 298.423 34.2946 299.427 33.7922L293.166 21.2703C290.921 22.3929 288.88 23.8255 287.063 25.556L296.718 35.694ZM299.523 33.7437C300.587 33.1908 301.742 32.7709 303.006 32.4923L299.994 18.8202C297.571 19.3541 295.256 20.1842 293.071 21.3188L299.523 33.7437ZM303.116 32.4671C304.427 32.156 305.76 32 307.125 32V18C304.678 18 302.26 18.2815 299.884 18.8454L303.116 32.4671ZM307.125 32C308.573 32 309.987 32.232 311.398 32.7091L315.883 19.4472C313.044 18.4868 310.115 18 307.125 18V32ZM311.427 32.7189C312.711 33.1469 313.785 33.772 314.715 34.5967L324.004 24.1221C321.621 22.0092 318.883 20.4468 315.854 19.4373L311.427 32.7189ZM314.82 34.6881C315.645 35.3909 316.392 36.3515 317.009 37.72L329.772 31.9675C328.389 28.8985 326.449 26.2028 323.899 24.0307L314.82 34.6881ZM317.043 37.7942C317.563 38.9129 317.938 40.462 317.938 42.625H331.938C331.938 38.8505 331.281 35.2121 329.738 31.8933L317.043 37.7942ZM317.938 42.625V88H331.938V42.625H317.938ZM324.938 81H301.641V95H324.938V81ZM308.641 88V38.3125H294.641V88H308.641ZM301.641 31.3125H290.578V45.3125H301.641V31.3125ZM283.578 38.3125V88H297.578V38.3125H283.578ZM290.578 81H267.281V95H290.578V81ZM369.281 13.2344V6.23438H362.281V13.2344H369.281ZM411.703 14.0781L410.4 20.9558L410.413 20.9582L411.703 14.0781ZM419.109 16.3281L416.06 22.6292L416.08 22.6388L416.1 22.6481L419.109 16.3281ZM423.609 19.6094L418.21 24.0641L418.27 24.1375L418.333 24.2093L423.609 19.6094ZM425.953 23.5L419.375 25.8922L419.383 25.9167L419.393 25.9411L425.953 23.5ZM426.797 27.625L419.804 27.9358L419.807 28.0185L419.813 28.1012L426.797 27.625ZM426.797 53.4062L419.812 52.9406L419.807 53.0145L419.804 53.0884L426.797 53.4062ZM423.609 61.375L418.276 56.8415L418.242 56.8806L418.21 56.9203L423.609 61.375ZM419.109 64.6562L416.1 58.3362L416.08 58.3456L416.06 58.3551L419.109 64.6562ZM411.703 66.9062L410.413 60.0261L410.4 60.0286L411.703 66.9062ZM392.578 67.75V60.75H385.578V67.75H392.578ZM392.578 88V95H399.578V88H392.578ZM369.281 88H362.281V95H369.281V88ZM392.578 57.5312H385.578V64.5312H392.578V57.5312ZM403.641 57.5312V64.5312H410.641V57.5312H403.641ZM403.641 24.3438H410.641V17.3438H403.641V24.3438ZM392.578 24.3438V17.3438H385.578V24.3438H392.578ZM369.281 20.2344H400.688V6.23438H369.281V20.2344ZM400.688 20.2344C404.801 20.2344 408.005 20.5019 410.4 20.9558L413.006 7.20049C409.464 6.52935 405.324 6.23438 400.688 6.23438V20.2344ZM410.413 20.9582C413.036 21.45 414.86 22.0482 416.06 22.6292L422.158 10.027C419.484 8.73305 416.371 7.83129 412.993 7.19802L410.413 20.9582ZM416.1 22.6481C417.448 23.2901 418.013 23.8261 418.21 24.0641L429.009 15.1547C427.143 12.8926 424.708 11.2411 422.119 10.0081L416.1 22.6481ZM418.333 24.2093C418.889 24.8468 419.198 25.4079 419.375 25.8922L432.532 21.1078C431.708 18.8421 430.455 16.8095 428.886 15.0094L418.333 24.2093ZM419.393 25.9411C419.643 26.6145 419.774 27.2714 419.804 27.9358L433.79 27.3142C433.694 25.1661 433.263 23.073 432.514 21.0589L419.393 25.9411ZM419.813 28.1012C419.897 29.3335 419.938 30.4865 419.938 31.5625H433.938C433.938 30.1385 433.884 28.6665 433.781 27.1488L419.813 28.1012ZM419.938 31.5625V49.4219H433.938V31.5625H419.938ZM419.938 49.4219C419.938 50.4985 419.897 51.6702 419.812 52.9406L433.781 53.8719C433.884 52.3298 433.938 50.8453 433.938 49.4219H419.938ZM419.804 53.0884C419.776 53.7076 419.65 54.3519 419.393 55.0432L432.514 59.9255C433.256 57.9293 433.693 55.8549 433.79 53.7241L419.804 53.0884ZM419.393 55.0432C419.214 55.5219 418.886 56.1239 418.276 56.8415L428.943 65.9085C430.458 64.1261 431.692 62.1344 432.514 59.9255L419.393 55.0432ZM418.21 56.9203C418.013 57.1582 417.448 57.6943 416.1 58.3362L422.119 70.9763C424.708 69.7432 427.143 68.0918 429.009 65.8297L418.21 56.9203ZM416.06 58.3551C414.86 58.9362 413.036 59.5344 410.413 60.0261L412.993 73.7864C416.371 73.1531 419.484 72.2513 422.158 70.9574L416.06 58.3551ZM410.4 60.0286C408.005 60.4825 404.801 60.75 400.688 60.75V74.75C405.324 74.75 409.464 74.455 413.006 73.7839L410.4 60.0286ZM400.688 60.75H392.578V74.75H400.688V60.75ZM385.578 67.75V88H399.578V67.75H385.578ZM392.578 81H369.281V95H392.578V81ZM376.281 88V13.2344H362.281V88H376.281ZM392.578 64.5312H403.641V50.5312H392.578V64.5312ZM410.641 57.5312V24.3438H396.641V57.5312H410.641ZM403.641 17.3438H392.578V31.3438H403.641V17.3438ZM385.578 24.3438V57.5312H399.578V24.3438H385.578ZM444.75 88H437.75V95H444.75V88ZM444.75 7.84375V0.84375H437.75V7.84375H444.75ZM468.047 7.84375H475.047V0.84375H468.047V7.84375ZM468.047 32.3125H461.047V56.8326L473.992 36.008L468.047 32.3125ZM474.75 26.9688L477.422 33.4386L477.482 33.414L477.541 33.3882L474.75 26.9688ZM479.391 25.5625L480.688 32.4411L480.751 32.4294L480.813 32.4164L479.391 25.5625ZM490.969 26.0781L488.814 32.7382L488.828 32.7428L488.842 32.7473L490.969 26.0781ZM496.734 29.2656L492.195 34.5943L492.224 34.6189L492.253 34.6432L496.734 29.2656ZM500.812 34.7031L494.465 37.6535L494.482 37.6901L494.499 37.7265L500.812 34.7031ZM502.406 88V95H509.406V88H502.406ZM479.109 88H472.109V95H479.109V88ZM479.109 38.3125H486.109V31.3125H479.109V38.3125ZM468.047 38.3125V31.3125H461.047V38.3125H468.047ZM468.047 88V95H475.047V88H468.047ZM451.75 88V7.84375H437.75V88H451.75ZM444.75 14.8438H468.047V0.84375H444.75V14.8438ZM461.047 7.84375V32.3125H475.047V7.84375H461.047ZM473.992 36.008C474.246 35.5999 474.614 35.1696 475.178 34.7281L466.541 23.7094C464.792 25.0804 463.286 26.7126 462.102 28.617L473.992 36.008ZM475.178 34.7281C475.803 34.238 476.54 33.803 477.422 33.4386L472.078 20.4989C470.085 21.322 468.228 22.387 466.541 23.7094L475.178 34.7281ZM477.541 33.3882C478.465 32.9865 479.507 32.664 480.688 32.4411L478.093 18.6839C475.961 19.086 473.91 19.701 471.959 20.5493L477.541 33.3882ZM480.813 32.4164C481.986 32.1731 483.211 32.0469 484.5 32.0469V18.0469C482.289 18.0469 480.108 18.2644 477.968 18.7086L480.813 32.4164ZM484.5 32.0469C485.94 32.0469 487.37 32.2711 488.814 32.7382L493.123 19.418C490.317 18.5101 487.435 18.0469 484.5 18.0469V32.0469ZM488.842 32.7473C490.132 33.1586 491.23 33.7722 492.195 34.5943L501.274 23.9369C498.864 21.8841 496.118 20.3726 493.095 19.4089L488.842 32.7473ZM492.253 34.6432C493.061 35.3161 493.819 36.2641 494.465 37.6535L507.16 31.7527C505.744 28.7046 503.783 26.0276 501.216 23.8881L492.253 34.6432ZM494.499 37.7265C495.013 38.7993 495.406 40.359 495.406 42.625H509.406C509.406 38.766 508.737 35.0445 507.126 31.6798L494.499 37.7265ZM495.406 42.625V88H509.406V42.625H495.406ZM502.406 81H479.109V95H502.406V81ZM486.109 88V38.3125H472.109V88H486.109ZM479.109 31.3125H468.047V45.3125H479.109V31.3125ZM461.047 38.3125V88H475.047V38.3125H461.047ZM468.047 81H444.75V95H468.047V81ZM552.188 88L545.429 89.8213L546.824 95H552.188V88ZM550.078 80.1719L556.837 78.3506L552.104 60.7859L543.842 76.9926L550.078 80.1719ZM542.812 87.3438L545.994 93.5791L546.044 93.5535L546.094 93.5272L542.812 87.3438ZM537.891 89.0781L536.424 82.2335L536.352 82.2489L536.28 82.2658L537.891 89.0781ZM523.688 88.0469L526.553 81.6604L526.534 81.6518L526.515 81.6434L523.688 88.0469ZM517.875 83.8281L512.428 88.2243L512.47 88.2767L512.513 88.3282L517.875 83.8281ZM514.781 77.7812L508.007 79.5444L508.021 79.5997L508.037 79.6548L514.781 77.7812ZM514.969 63.4844L508.286 61.4014L508.277 61.429L508.269 61.4568L514.969 63.4844ZM518.766 57.0625L513.693 52.2391L513.691 52.2413L518.766 57.0625ZM526.031 52.4688L523.559 45.92L523.548 45.9242L523.536 45.9284L526.031 52.4688ZM548.25 51.3438L547.425 58.295L555.25 59.2234V51.3438H548.25ZM548.25 38.3125H555.25V31.3125H548.25V38.3125ZM537.188 38.3125V31.3125H530.188V38.3125H537.188ZM537.188 46.1406L537.17 53.1406L544.188 53.1584V46.1406H537.188ZM518.719 46.0938L511.982 47.994L513.416 53.0803L518.701 53.0937L518.719 46.0938ZM518.719 33.7188L512.39 30.7271L512.378 30.7524L512.366 30.7779L518.719 33.7188ZM522.844 29.2188L519.026 23.3518L519.004 23.3658L518.983 23.38L522.844 29.2188ZM530.719 26.1719L529.173 19.3447L529.166 19.3463L529.159 19.3479L530.719 26.1719ZM567.562 31.4219L562.488 36.2431L562.518 36.2752L562.549 36.3069L567.562 31.4219ZM570.234 35.3125L563.808 38.0876L563.82 38.1146L563.832 38.1416L570.234 35.3125ZM571.312 39.4375L564.34 40.0573L564.348 40.1427L564.357 40.2279L571.312 39.4375ZM571.828 80.3125L564.89 81.2376L564.9 81.3132L564.911 81.3884L571.828 80.3125ZM572.531 84.1562L565.689 85.6356L565.701 85.6888L565.713 85.7418L572.531 84.1562ZM573.562 88V95H583.04L580.253 85.9414L573.562 88ZM537.188 59.7812V52.7812H530.188V59.7812H537.188ZM537.188 76.8906H530.188V83.8906H537.188V76.8906ZM548.25 76.8906V83.8906H555.25V76.8906H548.25ZM548.25 59.7812H555.25V52.7812H548.25V59.7812ZM558.946 86.1787L556.837 78.3506L543.319 81.9931L545.429 89.8213L558.946 86.1787ZM543.842 76.9926C543.376 77.9056 542.816 78.6487 542.163 79.2688L551.806 89.4187C553.653 87.6638 555.155 85.6256 556.314 83.3512L543.842 76.9926ZM542.163 79.2688C541.376 80.0162 540.504 80.644 539.531 81.1603L546.094 93.5272C548.183 92.4185 550.092 91.0463 551.806 89.4187L542.163 79.2688ZM539.631 81.1084C538.664 81.6017 537.603 81.9809 536.424 82.2335L539.357 95.9227C541.678 95.4254 543.898 94.6483 545.994 93.5791L539.631 81.1084ZM536.28 82.2658C535.075 82.5508 533.896 82.6875 532.734 82.6875V96.6875C535.01 96.6875 537.269 96.4179 539.501 95.8904L536.28 82.2658ZM532.734 82.6875C529.806 82.6875 527.835 82.2357 526.553 81.6604L520.822 94.4334C524.415 96.0455 528.475 96.6875 532.734 96.6875V82.6875ZM526.515 81.6434C524.94 80.9477 523.92 80.1424 523.237 79.328L512.513 88.3282C514.767 91.0139 517.623 93.021 520.86 94.4504L526.515 81.6434ZM523.322 79.432C522.497 78.4095 521.9 77.2562 521.526 75.9077L508.037 79.6548C508.912 82.8063 510.378 85.6842 512.428 88.2243L523.322 79.432ZM521.556 76.0181C521.115 74.3245 520.891 72.5738 520.891 70.75H506.891C506.891 73.7387 507.26 76.6755 508.007 79.5444L521.556 76.0181ZM520.891 70.75C520.891 68.9717 521.148 67.2329 521.669 65.512L508.269 61.4568C507.352 64.4858 506.891 67.5908 506.891 70.75H520.891ZM521.652 65.5674C522.074 64.2123 522.778 63.0022 523.841 61.8837L513.691 52.2413C511.191 54.8728 509.363 57.944 508.286 61.4014L521.652 65.5674ZM523.839 61.8859C524.783 60.8931 526.249 59.8778 528.526 59.0091L523.536 45.9284C519.751 47.3722 516.374 49.4194 513.693 52.2391L523.839 61.8859ZM528.504 59.0175C530.523 58.2553 533.461 57.7344 537.562 57.7344V43.7344C532.414 43.7344 527.665 44.3697 523.559 45.92L528.504 59.0175ZM537.562 57.7344C539.021 57.7344 540.62 57.7773 542.363 57.866L543.074 43.884C541.13 43.7852 539.292 43.7344 537.562 43.7344V57.7344ZM542.363 57.866C544.049 57.9517 545.737 58.0946 547.425 58.295L549.075 44.3925C547.076 44.1554 545.076 43.9858 543.074 43.884L542.363 57.866ZM555.25 51.3438V38.3125H541.25V51.3438H555.25ZM548.25 31.3125H537.188V45.3125H548.25V31.3125ZM530.188 38.3125V46.1406H544.188V38.3125H530.188ZM537.205 39.1406L518.737 39.0938L518.701 53.0937L537.17 53.1406L537.205 39.1406ZM525.456 44.1935C525.168 43.173 524.937 42.1809 524.759 41.2162L510.991 43.7525C511.251 45.1629 511.582 46.577 511.982 47.994L525.456 44.1935ZM524.759 41.2162C524.61 40.4044 524.547 39.6896 524.547 39.0625H510.547C510.547 40.6229 510.703 42.1893 510.991 43.7525L524.759 41.2162ZM524.547 39.0625C524.547 38.1945 524.72 37.4176 525.071 36.6596L512.366 30.7779C511.155 33.3949 510.547 36.1805 510.547 39.0625H524.547ZM525.047 36.7104C525.203 36.3805 525.598 35.7896 526.705 35.0575L518.983 23.38C516.215 25.2104 513.859 27.6195 512.39 30.7271L525.047 36.7104ZM526.662 35.0857C527.711 34.403 529.482 33.6351 532.279 32.9959L529.159 19.3479C525.393 20.2087 521.914 21.472 519.026 23.3518L526.662 35.0857ZM532.265 32.9991C534.89 32.4045 538.5 32.0469 543.234 32.0469V18.0469C537.906 18.0469 533.172 18.4392 529.173 19.3447L532.265 32.9991ZM543.234 32.0469C547.508 32.0469 550.914 32.3145 553.537 32.782L555.994 18.9992C552.304 18.3417 548.023 18.0469 543.234 18.0469V32.0469ZM553.537 32.782C556.335 33.2807 558.368 33.8973 559.78 34.5294L565.501 21.7518C562.726 20.509 559.508 19.6256 555.994 18.9992L553.537 32.782ZM559.78 34.5294C561.301 35.2104 562.099 35.8345 562.488 36.2431L572.637 26.6006C570.651 24.5092 568.168 22.9458 565.501 21.7518L559.78 34.5294ZM562.549 36.3069C563.221 36.9968 563.595 37.5953 563.808 38.0876L576.661 32.5374C575.686 30.2797 574.279 28.2844 572.576 26.5368L562.549 36.3069ZM563.832 38.1416C564.129 38.8138 564.286 39.4443 564.34 40.0573L578.285 38.8177C578.089 36.6182 577.528 34.4987 576.637 32.4834L563.832 38.1416ZM564.357 40.2279C564.487 41.3679 564.547 42.4153 564.547 43.375H578.547C578.547 41.8347 578.451 40.2571 578.268 38.6471L564.357 40.2279ZM564.547 43.375V75.9531H578.547V43.375H564.547ZM564.547 75.9531C564.547 77.745 564.659 79.5078 564.89 81.2376L578.767 79.3874C578.622 78.3047 578.547 77.1613 578.547 75.9531H564.547ZM564.911 81.3884C565.147 82.9038 565.405 84.3221 565.689 85.6356L579.373 82.6769C579.157 81.6779 578.947 80.5337 578.745 79.2366L564.911 81.3884ZM565.713 85.7418C566.06 87.2319 566.445 88.6717 566.872 90.0586L580.253 85.9414C579.93 84.8908 579.628 83.7681 579.349 82.5707L565.713 85.7418ZM573.562 81H552.188V95H573.562V81ZM530.188 59.7812V76.8906H544.188V59.7812H530.188ZM537.188 83.8906H548.25V69.8906H537.188V83.8906ZM555.25 76.8906V59.7812H541.25V76.8906H555.25ZM548.25 52.7812H537.188V66.7812H548.25V52.7812ZM585.469 88H578.469V95H585.469V88ZM585.469 27.0625V20.0625H578.469V27.0625H585.469ZM603.797 27.0625L610.546 25.2036L609.129 20.0625H603.797V27.0625ZM605.953 34.8906L599.204 36.7495L604.051 54.3464L612.214 38.0211L605.953 34.8906ZM609.141 30.625L613.904 35.7546L613.936 35.7245L613.968 35.694L609.141 30.625ZM613.547 27.5312L616.677 33.7922L616.725 33.7683L616.773 33.7437L613.547 27.5312ZM618.703 25.6562L620.234 32.4868L620.277 32.4772L620.319 32.4671L618.703 25.6562ZM628.688 25.5625L626.956 32.3449L627.04 32.3663L627.124 32.3856L628.688 25.5625ZM632.906 27.2031L629.433 33.2808L629.488 33.3123L629.544 33.3428L632.906 27.2031ZM639.281 33.7656L633.047 36.9491L638.746 48.1087L645.261 37.4053L639.281 33.7656ZM642.562 29.9688L638.144 24.5398L638.112 24.5653L638.081 24.5912L642.562 29.9688ZM646.969 27.25L649.847 33.6311L649.898 33.6078L649.949 33.5837L646.969 27.25ZM663.703 26.0781L661.4 32.6883L661.415 32.6936L661.43 32.6989L663.703 26.0781ZM673.172 34.8906L666.757 37.6916L666.781 37.7465L666.806 37.8009L673.172 34.8906ZM674.672 88V95H681.672V88H674.672ZM652.312 88H645.312V95H652.312V88ZM652.312 38.3125H659.312V31.3125H652.312V38.3125ZM641.203 38.3125V31.3125H632.664L634.339 39.6853L641.203 38.3125ZM641.25 88V95H648.25V88H641.25ZM618.891 88H611.891V95H618.891V88ZM618.891 38.3125H625.891V31.3125H618.891V38.3125ZM607.828 38.3125V31.3125H600.828V38.3125H607.828ZM607.828 88V95H614.828V88H607.828ZM592.469 88V27.0625H578.469V88H592.469ZM585.469 34.0625H603.797V20.0625H585.469V34.0625ZM597.048 28.9214L599.204 36.7495L612.702 33.0317L610.546 25.2036L597.048 28.9214ZM612.214 38.0211C612.657 37.1359 613.215 36.3938 613.904 35.7546L604.377 25.4954C602.441 27.2937 600.875 29.3954 599.692 31.7601L612.214 38.0211ZM613.968 35.694C614.776 34.9245 615.673 34.2946 616.677 33.7922L610.416 21.2703C608.171 22.3929 606.13 23.8255 604.313 25.556L613.968 35.694ZM616.773 33.7437C617.854 33.1823 619.002 32.7629 620.234 32.4868L617.172 18.8257C614.779 19.3621 612.49 20.1927 610.321 21.3188L616.773 33.7437ZM620.319 32.4671C621.658 32.1496 622.943 32 624.188 32V18C621.807 18 619.436 18.2879 617.087 18.8454L620.319 32.4671ZM624.188 32C625.141 32 626.059 32.1159 626.956 32.3449L630.419 18.7801C628.379 18.2591 626.297 18 624.188 18V32ZM627.124 32.3856C627.966 32.5787 628.728 32.8778 629.433 33.2808L636.379 21.1254C634.46 20.0285 632.409 19.2338 630.251 18.7394L627.124 32.3856ZM629.544 33.3428C630.254 33.7316 630.926 34.2319 631.566 34.8716L641.465 24.9721C639.918 23.4243 638.183 22.1121 636.268 21.0635L629.544 33.3428ZM631.566 34.8716C632.108 35.4142 632.608 36.0894 633.047 36.9491L645.515 30.5822C644.454 28.5043 643.11 26.6171 641.465 24.9721L631.566 34.8716ZM645.261 37.4053C645.729 36.6356 646.314 35.9547 647.044 35.3463L638.081 24.5912C636.186 26.1703 634.583 28.0206 633.302 30.126L645.261 37.4053ZM646.981 35.3977C647.851 34.6902 648.8 34.1028 649.847 33.6311L644.091 20.8689C641.95 21.8347 639.962 23.0598 638.144 24.5398L646.981 35.3977ZM649.949 33.5837C651.036 33.0724 652.205 32.6793 653.473 32.4123L650.589 18.7127C648.295 19.1957 646.089 19.9276 643.988 20.9163L649.949 33.5837ZM653.473 32.4123C654.791 32.135 656.089 32 657.375 32V18C655.099 18 652.834 18.24 650.589 18.7127L653.473 32.4123ZM657.375 32C658.737 32 660.068 32.2242 661.4 32.6883L666.007 19.468C663.213 18.4946 660.326 18 657.375 18V32ZM661.43 32.6989C662.639 33.1137 663.672 33.7253 664.587 34.5525L673.975 24.1663C671.64 22.0559 668.955 20.4801 665.976 19.4574L661.43 32.6989ZM664.587 34.5525C665.401 35.2878 666.143 36.2868 666.757 37.6916L679.587 32.0896C678.263 29.057 676.411 26.3684 673.975 24.1663L664.587 34.5525ZM666.806 37.8009C667.302 38.8871 667.672 40.4311 667.672 42.625H681.672C681.672 38.8814 681.042 35.2691 679.538 31.9803L666.806 37.8009ZM667.672 42.625V88H681.672V42.625H667.672ZM674.672 81H652.312V95H674.672V81ZM659.312 88V38.3125H645.312V88H659.312ZM652.312 31.3125H641.203V45.3125H652.312V31.3125ZM634.339 39.6853C634.266 39.3186 634.25 39.0231 634.25 38.8281H648.25C648.25 38.2581 648.203 37.6189 648.067 36.9397L634.339 39.6853ZM634.25 38.8281C634.25 38.8284 634.25 38.8287 634.25 38.829C634.25 38.8293 634.25 38.8297 634.25 38.83C634.25 38.8303 634.25 38.8306 634.25 38.8309C634.25 38.8312 634.25 38.8315 634.25 38.8318C634.25 38.8321 634.25 38.8324 634.25 38.8327C634.25 38.833 634.25 38.8333 634.25 38.8336C634.25 38.8339 634.25 38.8342 634.25 38.8345C634.25 38.8348 634.25 38.8351 634.25 38.8354C634.25 38.8358 634.25 38.8361 634.25 38.8364C634.25 38.8367 634.25 38.837 634.25 38.8373C634.25 38.8376 634.25 38.8379 634.25 38.8382C634.25 38.8385 634.25 38.8388 634.25 38.8391C634.25 38.8394 634.25 38.8397 634.25 38.84C634.25 38.8403 634.25 38.8406 634.25 38.8409C634.25 38.8412 634.25 38.8416 634.25 38.8419C634.25 38.8422 634.25 38.8425 634.25 38.8428C634.25 38.8431 634.25 38.8434 634.25 38.8437C634.25 38.844 634.25 38.8443 634.25 38.8446C634.25 38.8449 634.25 38.8452 634.25 38.8455C634.25 38.8458 634.25 38.8461 634.25 38.8464C634.25 38.8467 634.25 38.847 634.25 38.8474C634.25 38.8477 634.25 38.848 634.25 38.8483C634.25 38.8486 634.25 38.8489 634.25 38.8492C634.25 38.8495 634.25 38.8498 634.25 38.8501C634.25 38.8504 634.25 38.8507 634.25 38.851C634.25 38.8513 634.25 38.8516 634.25 38.8519C634.25 38.8522 634.25 38.8525 634.25 38.8528C634.25 38.8531 634.25 38.8535 634.25 38.8538C634.25 38.8541 634.25 38.8544 634.25 38.8547C634.25 38.855 634.25 38.8553 634.25 38.8556C634.25 38.8559 634.25 38.8562 634.25 38.8565C634.25 38.8568 634.25 38.8571 634.25 38.8574C634.25 38.8577 634.25 38.858 634.25 38.8583C634.25 38.8586 634.25 38.8589 634.25 38.8593C634.25 38.8596 634.25 38.8599 634.25 38.8602C634.25 38.8605 634.25 38.8608 634.25 38.8611C634.25 38.8614 634.25 38.8617 634.25 38.862C634.25 38.8623 634.25 38.8626 634.25 38.8629C634.25 38.8632 634.25 38.8635 634.25 38.8638C634.25 38.8641 634.25 38.8644 634.25 38.8647C634.25 38.8651 634.25 38.8654 634.25 38.8657C634.25 38.866 634.25 38.8663 634.25 38.8666C634.25 38.8669 634.25 38.8672 634.25 38.8675C634.25 38.8678 634.25 38.8681 634.25 38.8684C634.25 38.8687 634.25 38.869 634.25 38.8693C634.25 38.8696 634.25 38.8699 634.25 38.8702C634.25 38.8705 634.25 38.8708 634.25 38.8712C634.25 38.8715 634.25 38.8718 634.25 38.8721C634.25 38.8724 634.25 38.8727 634.25 38.873C634.25 38.8733 634.25 38.8736 634.25 38.8739C634.25 38.8742 634.25 38.8745 634.25 38.8748C634.25 38.8751 634.25 38.8754 634.25 38.8757C634.25 38.876 634.25 38.8763 634.25 38.8766C634.25 38.877 634.25 38.8773 634.25 38.8776C634.25 38.8779 634.25 38.8782 634.25 38.8785C634.25 38.8788 634.25 38.8791 634.25 38.8794C634.25 38.8797 634.25 38.88 634.25 38.8803C634.25 38.8806 634.25 38.8809 634.25 38.8812C634.25 38.8815 634.25 38.8818 634.25 38.8821C634.25 38.8824 634.25 38.8828 634.25 38.8831C634.25 38.8834 634.25 38.8837 634.25 38.884C634.25 38.8843 634.25 38.8846 634.25 38.8849C634.25 38.8852 634.25 38.8855 634.25 38.8858C634.25 38.8861 634.25 38.8864 634.25 38.8867C634.25 38.887 634.25 38.8873 634.25 38.8876C634.25 38.8879 634.25 38.8882 634.25 38.8885C634.25 38.8889 634.25 38.8892 634.25 38.8895C634.25 38.8898 634.25 38.8901 634.25 38.8904C634.25 38.8907 634.25 38.891 634.25 38.8913C634.25 38.8916 634.25 38.8919 634.25 38.8922C634.25 38.8925 634.25 38.8928 634.25 38.8931C634.25 38.8934 634.25 38.8937 634.25 38.894C634.25 38.8943 634.25 38.8947 634.25 38.895C634.25 38.8953 634.25 38.8956 634.25 38.8959C634.25 38.8962 634.25 38.8965 634.25 38.8968C634.25 38.8971 634.25 38.8974 634.25 38.8977C634.25 38.898 634.25 38.8983 634.25 38.8986C634.25 38.8989 634.25 38.8992 634.25 38.8995C634.25 38.8998 634.25 38.9001 634.25 38.9005C634.25 38.9008 634.25 38.9011 634.25 38.9014C634.25 38.9017 634.25 38.902 634.25 38.9023C634.25 38.9026 634.25 38.9029 634.25 38.9032C634.25 38.9035 634.25 38.9038 634.25 38.9041C634.25 38.9044 634.25 38.9047 634.25 38.905C634.25 38.9053 634.25 38.9056 634.25 38.9059C634.25 38.9062 634.25 38.9066 634.25 38.9069C634.25 38.9072 634.25 38.9075 634.25 38.9078C634.25 38.9081 634.25 38.9084 634.25 38.9087C634.25 38.909 634.25 38.9093 634.25 38.9096C634.25 38.9099 634.25 38.9102 634.25 38.9105C634.25 38.9108 634.25 38.9111 634.25 38.9114C634.25 38.9117 634.25 38.912 634.25 38.9124C634.25 38.9127 634.25 38.913 634.25 38.9133C634.25 38.9136 634.25 38.9139 634.25 38.9142C634.25 38.9145 634.25 38.9148 634.25 38.9151C634.25 38.9154 634.25 38.9157 634.25 38.916C634.25 38.9163 634.25 38.9166 634.25 38.9169C634.25 38.9172 634.25 38.9175 634.25 38.9178C634.25 38.9182 634.25 38.9185 634.25 38.9188C634.25 38.9191 634.25 38.9194 634.25 38.9197C634.25 38.92 634.25 38.9203 634.25 38.9206C634.25 38.9209 634.25 38.9212 634.25 38.9215C634.25 38.9218 634.25 38.9221 634.25 38.9224C634.25 38.9227 634.25 38.923 634.25 38.9233C634.25 38.9236 634.25 38.924 634.25 38.9243C634.25 38.9246 634.25 38.9249 634.25 38.9252C634.25 38.9255 634.25 38.9258 634.25 38.9261C634.25 38.9264 634.25 38.9267 634.25 38.927C634.25 38.9273 634.25 38.9276 634.25 38.9279C634.25 38.9282 634.25 38.9285 634.25 38.9288C634.25 38.9291 634.25 38.9294 634.25 38.9297C634.25 38.9301 634.25 38.9304 634.25 38.9307C634.25 38.931 634.25 38.9313 634.25 38.9316C634.25 38.9319 634.25 38.9322 634.25 38.9325C634.25 38.9328 634.25 38.9331 634.25 38.9334C634.25 38.9337 634.25 38.934 634.25 38.9343C634.25 38.9346 634.25 38.9349 634.25 38.9352C634.25 38.9355 634.25 38.9359 634.25 38.9362C634.25 38.9365 634.25 38.9368 634.25 38.9371C634.25 38.9374 634.25 38.9377 634.25 38.938C634.25 38.9383 634.25 38.9386 634.25 38.9389C634.25 38.9392 634.25 38.9395 634.25 38.9398C634.25 38.9401 634.25 38.9404 634.25 38.9407C634.25 38.941 634.25 38.9413 634.25 38.9417C634.25 38.942 634.25 38.9423 634.25 38.9426C634.25 38.9429 634.25 38.9432 634.25 38.9435C634.25 38.9438 634.25 38.9441 634.25 38.9444C634.25 38.9447 634.25 38.945 634.25 38.9453C634.25 38.9456 634.25 38.9459 634.25 38.9462C634.25 38.9465 634.25 38.9468 634.25 38.9471C634.25 38.9474 634.25 38.9478 634.25 38.9481C634.25 38.9484 634.25 38.9487 634.25 38.949C634.25 38.9493 634.25 38.9496 634.25 38.9499C634.25 38.9502 634.25 38.9505 634.25 38.9508C634.25 38.9511 634.25 38.9514 634.25 38.9517C634.25 38.952 634.25 38.9523 634.25 38.9526C634.25 38.9529 634.25 38.9532 634.25 38.9536C634.25 38.9539 634.25 38.9542 634.25 38.9545C634.25 38.9548 634.25 38.9551 634.25 38.9554C634.25 38.9557 634.25 38.956 634.25 38.9563C634.25 38.9566 634.25 38.9569 634.25 38.9572C634.25 38.9575 634.25 38.9578 634.25 38.9581C634.25 38.9584 634.25 38.9587 634.25 38.959C634.25 38.9594 634.25 38.9597 634.25 38.96C634.25 38.9603 634.25 38.9606 634.25 38.9609C634.25 38.9612 634.25 38.9615 634.25 38.9618C634.25 38.9621 634.25 38.9624 634.25 38.9627C634.25 38.963 634.25 38.9633 634.25 38.9636C634.25 38.9639 634.25 38.9642 634.25 38.9645C634.25 38.9648 634.25 38.9651 634.25 38.9655C634.25 38.9658 634.25 38.9661 634.25 38.9664C634.25 38.9667 634.25 38.967 634.25 38.9673C634.25 38.9676 634.25 38.9679 634.25 38.9682C634.25 38.9685 634.25 38.9688 634.25 38.9691C634.25 38.9694 634.25 38.9697 634.25 38.97C634.25 38.9703 634.25 38.9706 634.25 38.9709C634.25 38.9713 634.25 38.9716 634.25 38.9719C634.25 38.9722 634.25 38.9725 634.25 38.9728C634.25 38.9731 634.25 38.9734 634.25 38.9737C634.25 38.974 634.25 38.9743 634.25 38.9746C634.25 38.9749 634.25 38.9752 634.25 38.9755C634.25 38.9758 634.25 38.9761 634.25 38.9764C634.25 38.9767 634.25 38.9771 634.25 38.9774C634.25 38.9777 634.25 38.978 634.25 38.9783C634.25 38.9786 634.25 38.9789 634.25 38.9792C634.25 38.9795 634.25 38.9798 634.25 38.9801C634.25 38.9804 634.25 38.9807 634.25 38.981C634.25 38.9813 634.25 38.9816 634.25 38.9819C634.25 38.9822 634.25 38.9825 634.25 38.9828C634.25 38.9832 634.25 38.9835 634.25 38.9838C634.25 38.9841 634.25 38.9844 634.25 38.9847C634.25 38.985 634.25 38.9853 634.25 38.9856C634.25 38.9859 634.25 38.9862 634.25 38.9865C634.25 38.9868 634.25 38.9871 634.25 38.9874C634.25 38.9877 634.25 38.988 634.25 38.9883C634.25 38.9886 634.25 38.989 634.25 38.9893C634.25 38.9896 634.25 38.9899 634.25 38.9902C634.25 38.9905 634.25 38.9908 634.25 38.9911C634.25 38.9914 634.25 38.9917 634.25 38.992C634.25 38.9923 634.25 38.9926 634.25 38.9929C634.25 38.9932 634.25 38.9935 634.25 38.9938C634.25 38.9941 634.25 38.9944 634.25 38.9948C634.25 38.9951 634.25 38.9954 634.25 38.9957C634.25 38.996 634.25 38.9963 634.25 38.9966C634.25 38.9969 634.25 38.9972 634.25 38.9975C634.25 38.9978 634.25 38.9981 634.25 38.9984C634.25 38.9987 634.25 38.999 634.25 38.9993C634.25 38.9996 634.25 38.9999 634.25 39.0002C634.25 39.0005 634.25 39.0009 634.25 39.0012C634.25 39.0015 634.25 39.0018 634.25 39.0021C634.25 39.0024 634.25 39.0027 634.25 39.003C634.25 39.0033 634.25 39.0036 634.25 39.0039C634.25 39.0042 634.25 39.0045 634.25 39.0048C634.25 39.0051 634.25 39.0054 634.25 39.0057C634.25 39.006 634.25 39.0063 634.25 39.0067C634.25 39.007 634.25 39.0073 634.25 39.0076C634.25 39.0079 634.25 39.0082 634.25 39.0085C634.25 39.0088 634.25 39.0091 634.25 39.0094C634.25 39.0097 634.25 39.01 634.25 39.0103C634.25 39.0106 634.25 39.0109 634.25 39.0112C634.25 39.0115 634.25 39.0118 634.25 39.0121C634.25 39.0125 634.25 39.0128 634.25 39.0131C634.25 39.0134 634.25 39.0137 634.25 39.014C634.25 39.0143 634.25 39.0146 634.25 39.0149C634.25 39.0152 634.25 39.0155 634.25 39.0158C634.25 39.0161 634.25 39.0164 634.25 39.0167C634.25 39.017 634.25 39.0173 634.25 39.0176C634.25 39.0179 634.25 39.0182 634.25 39.0186C634.25 39.0189 634.25 39.0192 634.25 39.0195C634.25 39.0198 634.25 39.0201 634.25 39.0204C634.25 39.0207 634.25 39.021 634.25 39.0213C634.25 39.0216 634.25 39.0219 634.25 39.0222C634.25 39.0225 634.25 39.0228 634.25 39.0231C634.25 39.0234 634.25 39.0237 634.25 39.024C634.25 39.0244 634.25 39.0247 634.25 39.025C634.25 39.0253 634.25 39.0256 634.25 39.0259C634.25 39.0262 634.25 39.0265 634.25 39.0268C634.25 39.0271 634.25 39.0274 634.25 39.0277C634.25 39.028 634.25 39.0283 634.25 39.0286C634.25 39.0289 634.25 39.0292 634.25 39.0295C634.25 39.0298 634.25 39.0302 634.25 39.0305C634.25 39.0308 634.25 39.0311 634.25 39.0314C634.25 39.0317 634.25 39.032 634.25 39.0323C634.25 39.0326 634.25 39.0329 634.25 39.0332C634.25 39.0335 634.25 39.0338 634.25 39.0341C634.25 39.0344 634.25 39.0347 634.25 39.035C634.25 39.0353 634.25 39.0356 634.25 39.0359C634.25 39.0363 634.25 39.0366 634.25 39.0369C634.25 39.0372 634.25 39.0375 634.25 39.0378C634.25 39.0381 634.25 39.0384 634.25 39.0387C634.25 39.039 634.25 39.0393 634.25 39.0396C634.25 39.0399 634.25 39.0402 634.25 39.0405C634.25 39.0408 634.25 39.0411 634.25 39.0414C634.25 39.0417 634.25 39.0421 634.25 39.0424C634.25 39.0427 634.25 39.043 634.25 39.0433C634.25 39.0436 634.25 39.0439 634.25 39.0442C634.25 39.0445 634.25 39.0448 634.25 39.0451C634.25 39.0454 634.25 39.0457 634.25 39.046C634.25 39.0463 634.25 39.0466 634.25 39.0469C634.25 39.0472 634.25 39.0475 634.25 39.0479C634.25 39.0482 634.25 39.0485 634.25 39.0488C634.25 39.0491 634.25 39.0494 634.25 39.0497C634.25 39.05 634.25 39.0503 634.25 39.0506C634.25 39.0509 634.25 39.0512 634.25 39.0515C634.25 39.0518 634.25 39.0521 634.25 39.0524C634.25 39.0527 634.25 39.053 634.25 39.0533C634.25 39.0536 634.25 39.054 634.25 39.0543C634.25 39.0546 634.25 39.0549 634.25 39.0552C634.25 39.0555 634.25 39.0558 634.25 39.0561C634.25 39.0564 634.25 39.0567 634.25 39.057C634.25 39.0573 634.25 39.0576 634.25 39.0579C634.25 39.0582 634.25 39.0585 634.25 39.0588C634.25 39.0591 634.25 39.0594 634.25 39.0598C634.25 39.0601 634.25 39.0604 634.25 39.0607C634.25 39.061 634.25 39.0613 634.25 39.0616C634.25 39.0619 634.25 39.0622 634.25 39.0625C634.25 39.0628 634.25 39.0631 634.25 39.0634C634.25 39.0637 634.25 39.064 634.25 39.0643C634.25 39.0646 634.25 39.0649 634.25 39.0652C634.25 39.0656 634.25 39.0659 634.25 39.0662C634.25 39.0665 634.25 39.0668 634.25 39.0671C634.25 39.0674 634.25 39.0677 634.25 39.068C634.25 39.0683 634.25 39.0686 634.25 39.0689C634.25 39.0692 634.25 39.0695 634.25 39.0698C634.25 39.0701 634.25 39.0704 634.25 39.0707C634.25 39.071 634.25 39.0714 634.25 39.0717C634.25 39.072 634.25 39.0723 634.25 39.0726C634.25 39.0729 634.25 39.0732 634.25 39.0735C634.25 39.0738 634.25 39.0741 634.25 39.0744C634.25 39.0747 634.25 39.075 634.25 39.0753C634.25 39.0756 634.25 39.0759 634.25 39.0762C634.25 39.0765 634.25 39.0768 634.25 39.0771C634.25 39.0775 634.25 39.0778 634.25 39.0781C634.25 39.0784 634.25 39.0787 634.25 39.079C634.25 39.0793 634.25 39.0796 634.25 39.0799C634.25 39.0802 634.25 39.0805 634.25 39.0808C634.25 39.0811 634.25 39.0814 634.25 39.0817C634.25 39.082 634.25 39.0823 634.25 39.0826C634.25 39.0829 634.25 39.0833 634.25 39.0836C634.25 39.0839 634.25 39.0842 634.25 39.0845C634.25 39.0848 634.25 39.0851 634.25 39.0854C634.25 39.0857 634.25 39.086 634.25 39.0863C634.25 39.0866 634.25 39.0869 634.25 39.0872C634.25 39.0875 634.25 39.0878 634.25 39.0881C634.25 39.0884 634.25 39.0887 634.25 39.0891C634.25 39.0894 634.25 39.0897 634.25 39.09C634.25 39.0903 634.25 39.0906 634.25 39.0909C634.25 39.0912 634.25 39.0915 634.25 39.0918C634.25 39.0921 634.25 39.0924 634.25 39.0927C634.25 39.093 634.25 39.0933 634.25 39.0936C634.25 39.0939 634.25 39.0942 634.25 39.0945C634.25 39.0948 634.25 39.0952 634.25 39.0955C634.25 39.0958 634.25 39.0961 634.25 39.0964C634.25 39.0967 634.25 39.097 634.25 39.0973C634.25 39.0976 634.25 39.0979 634.25 39.0982C634.25 39.0985 634.25 39.0988 634.25 39.0991C634.25 39.0994 634.25 39.0997 634.25 39.1C634.25 39.1003 634.25 39.1006 634.25 39.101C634.25 39.1013 634.25 39.1016 634.25 39.1019C634.25 39.1022 634.25 39.1025 634.25 39.1028C634.25 39.1031 634.25 39.1034 634.25 39.1037C634.25 39.104 634.25 39.1043 634.25 39.1046C634.25 39.1049 634.25 39.1052 634.25 39.1055C634.25 39.1058 634.25 39.1061 634.25 39.1064C634.25 39.1068 634.25 39.1071 634.25 39.1074C634.25 39.1077 634.25 39.108 634.25 39.1083C634.25 39.1086 634.25 39.1089 634.25 39.1092C634.25 39.1095 634.25 39.1098 634.25 39.1101C634.25 39.1104 634.25 39.1107 634.25 39.111C634.25 39.1113 634.25 39.1116 634.25 39.1119C634.25 39.1122 634.25 39.1125 634.25 39.1129C634.25 39.1132 634.25 39.1135 634.25 39.1138C634.25 39.1141 634.25 39.1144 634.25 39.1147C634.25 39.115 634.25 39.1153 634.25 39.1156C634.25 39.1159 634.25 39.1162 634.25 39.1165C634.25 39.1168 634.25 39.1171 634.25 39.1174C634.25 39.1177 634.25 39.118 634.25 39.1183C634.25 39.1187 634.25 39.119 634.25 39.1193C634.25 39.1196 634.25 39.1199 634.25 39.1202C634.25 39.1205 634.25 39.1208 634.25 39.1211C634.25 39.1214 634.25 39.1217 634.25 39.122C634.25 39.1223 634.25 39.1226 634.25 39.1229C634.25 39.1232 634.25 39.1235 634.25 39.1238C634.25 39.1241 634.25 39.1245 634.25 39.1248C634.25 39.1251 634.25 39.1254 634.25 39.1257C634.25 39.126 634.25 39.1263 634.25 39.1266C634.25 39.1269 634.25 39.1272 634.25 39.1275C634.25 39.1278 634.25 39.1281 634.25 39.1284C634.25 39.1287 634.25 39.129 634.25 39.1293C634.25 39.1296 634.25 39.1299 634.25 39.1302C634.25 39.1306 634.25 39.1309 634.25 39.1312C634.25 39.1315 634.25 39.1318 634.25 39.1321C634.25 39.1324 634.25 39.1327 634.25 39.133C634.25 39.1333 634.25 39.1336 634.25 39.1339C634.25 39.1342 634.25 39.1345 634.25 39.1348C634.25 39.1351 634.25 39.1354 634.25 39.1357C634.25 39.136 634.25 39.1364 634.25 39.1367C634.25 39.137 634.25 39.1373 634.25 39.1376C634.25 39.1379 634.25 39.1382 634.25 39.1385C634.25 39.1388 634.25 39.1391 634.25 39.1394C634.25 39.1397 634.25 39.14 634.25 39.1403C634.25 39.1406 634.25 39.1409 634.25 39.1412C634.25 39.1415 634.25 39.1418 634.25 39.1422C634.25 39.1425 634.25 39.1428 634.25 39.1431C634.25 39.1434 634.25 39.1437 634.25 39.144C634.25 39.1443 634.25 39.1446 634.25 39.1449C634.25 39.1452 634.25 39.1455 634.25 39.1458C634.25 39.1461 634.25 39.1464 634.25 39.1467C634.25 39.147 634.25 39.1473 634.25 39.1476C634.25 39.1479 634.25 39.1483 634.25 39.1486C634.25 39.1489 634.25 39.1492 634.25 39.1495C634.25 39.1498 634.25 39.1501 634.25 39.1504C634.25 39.1507 634.25 39.151 634.25 39.1513C634.25 39.1516 634.25 39.1519 634.25 39.1522C634.25 39.1525 634.25 39.1528 634.25 39.1531C634.25 39.1534 634.25 39.1537 634.25 39.1541C634.25 39.1544 634.25 39.1547 634.25 39.155C634.25 39.1553 634.25 39.1556 634.25 39.1559C634.25 39.1562 634.25 39.1565 634.25 39.1568C634.25 39.1571 634.25 39.1574 634.25 39.1577C634.25 39.158 634.25 39.1583 634.25 39.1586C634.25 39.1589 634.25 39.1592 634.25 39.1595C634.25 39.1599 634.25 39.1602 634.25 39.1605C634.25 39.1608 634.25 39.1611 634.25 39.1614C634.25 39.1617 634.25 39.162 634.25 39.1623C634.25 39.1626 634.25 39.1629 634.25 39.1632C634.25 39.1635 634.25 39.1638 634.25 39.1641C634.25 39.1644 634.25 39.1647 634.25 39.165C634.25 39.1653 634.25 39.1656 634.25 39.166C634.25 39.1663 634.25 39.1666 634.25 39.1669C634.25 39.1672 634.25 39.1675 634.25 39.1678C634.25 39.1681 634.25 39.1684 634.25 39.1687C634.25 39.169 634.25 39.1693 634.25 39.1696C634.25 39.1699 634.25 39.1702 634.25 39.1705C634.25 39.1708 634.25 39.1711 634.25 39.1714C634.25 39.1718 634.25 39.1721 634.25 39.1724C634.25 39.1727 634.25 39.173 634.25 39.1733C634.25 39.1736 634.25 39.1739 634.25 39.1742C634.25 39.1745 634.25 39.1748 634.25 39.1751C634.25 39.1754 634.25 39.1757 634.25 39.176C634.25 39.1763 634.25 39.1766 634.25 39.1769C634.25 39.1772 634.25 39.1776 634.25 39.1779C634.25 39.1782 634.25 39.1785 634.25 39.1788C634.25 39.1791 634.25 39.1794 634.25 39.1797C634.25 39.18 634.25 39.1803 634.25 39.1806C634.25 39.1809 634.25 39.1812 634.25 39.1815C634.25 39.1818 634.25 39.1821 634.25 39.1824C634.25 39.1827 634.25 39.183 634.25 39.1833C634.25 39.1837 634.25 39.184 634.25 39.1843C634.25 39.1846 634.25 39.1849 634.25 39.1852C634.25 39.1855 634.25 39.1858 634.25 39.1861C634.25 39.1864 634.25 39.1867 634.25 39.187C634.25 39.1873 634.25 39.1876 634.25 39.1879C634.25 39.1882 634.25 39.1885 634.25 39.1888C634.25 39.1891 634.25 39.1895 634.25 39.1898C634.25 39.1901 634.25 39.1904 634.25 39.1907C634.25 39.191 634.25 39.1913 634.25 39.1916C634.25 39.1919 634.25 39.1922 634.25 39.1925C634.25 39.1928 634.25 39.1931 634.25 39.1934C634.25 39.1937 634.25 39.194 634.25 39.1943C634.25 39.1946 634.25 39.1949 634.25 39.1953C634.25 39.1956 634.25 39.1959 634.25 39.1962C634.25 39.1965 634.25 39.1968 634.25 39.1971C634.25 39.1974 634.25 39.1977 634.25 39.198C634.25 39.1983 634.25 39.1986 634.25 39.1989C634.25 39.1992 634.25 39.1995 634.25 39.1998C634.25 39.2001 634.25 39.2004 634.25 39.2007C634.25 39.201 634.25 39.2014 634.25 39.2017C634.25 39.202 634.25 39.2023 634.25 39.2026C634.25 39.2029 634.25 39.2032 634.25 39.2035C634.25 39.2038 634.25 39.2041 634.25 39.2044C634.25 39.2047 634.25 39.205 634.25 39.2053C634.25 39.2056 634.25 39.2059 634.25 39.2062C634.25 39.2065 634.25 39.2068 634.25 39.2072C634.25 39.2075 634.25 39.2078 634.25 39.2081C634.25 39.2084 634.25 39.2087 634.25 39.209C634.25 39.2093 634.25 39.2096 634.25 39.2099C634.25 39.2102 634.25 39.2105 634.25 39.2108C634.25 39.2111 634.25 39.2114 634.25 39.2117C634.25 39.212 634.25 39.2123 634.25 39.2126C634.25 39.213 634.25 39.2133 634.25 39.2136C634.25 39.2139 634.25 39.2142 634.25 39.2145C634.25 39.2148 634.25 39.2151 634.25 39.2154C634.25 39.2157 634.25 39.216 634.25 39.2163C634.25 39.2166 634.25 39.2169 634.25 39.2172C634.25 39.2175 634.25 39.2178 634.25 39.2181C634.25 39.2184 634.25 39.2188 634.25 39.2191C634.25 39.2194 634.25 39.2197 634.25 39.22C634.25 39.2203 634.25 39.2206 634.25 39.2209C634.25 39.2212 634.25 39.2215 634.25 39.2218C634.25 39.2221 634.25 39.2224 634.25 39.2227C634.25 39.223 634.25 39.2233 634.25 39.2236C634.25 39.2239 634.25 39.2242 634.25 39.2245C634.25 39.2249 634.25 39.2252 634.25 39.2255C634.25 39.2258 634.25 39.2261 634.25 39.2264C634.25 39.2267 634.25 39.227 634.25 39.2273C634.25 39.2276 634.25 39.2279 634.25 39.2282C634.25 39.2285 634.25 39.2288 634.25 39.2291C634.25 39.2294 634.25 39.2297 634.25 39.23C634.25 39.2303 634.25 39.2307 634.25 39.231C634.25 39.2313 634.25 39.2316 634.25 39.2319C634.25 39.2322 634.25 39.2325 634.25 39.2328C634.25 39.2331 634.25 39.2334 634.25 39.2337C634.25 39.234 634.25 39.2343 634.25 39.2346C634.25 39.2349 634.25 39.2352 634.25 39.2355C634.25 39.2358 634.25 39.2361 634.25 39.2365C634.25 39.2368 634.25 39.2371 634.25 39.2374C634.25 39.2377 634.25 39.238 634.25 39.2383C634.25 39.2386 634.25 39.2389 634.25 39.2392C634.25 39.2395 634.25 39.2398 634.25 39.2401C634.25 39.2404 634.25 39.2407 634.25 39.241C634.25 39.2413 634.25 39.2416 634.25 39.2419C634.25 39.2422 634.25 39.2426 634.25 39.2429C634.25 39.2432 634.25 39.2435 634.25 39.2438C634.25 39.2441 634.25 39.2444 634.25 39.2447C634.25 39.245 634.25 39.2453 634.25 39.2456C634.25 39.2459 634.25 39.2462 634.25 39.2465C634.25 39.2468 634.25 39.2471 634.25 39.2474C634.25 39.2477 634.25 39.248 634.25 39.2484C634.25 39.2487 634.25 39.249 634.25 39.2493C634.25 39.2496 634.25 39.2499 634.25 39.2502C634.25 39.2505 634.25 39.2508 634.25 39.2511C634.25 39.2514 634.25 39.2517 634.25 39.252C634.25 39.2523 634.25 39.2526 634.25 39.2529C634.25 39.2532 634.25 39.2535 634.25 39.2538C634.25 39.2542 634.25 39.2545 634.25 39.2548C634.25 39.2551 634.25 39.2554 634.25 39.2557C634.25 39.256 634.25 39.2563 634.25 39.2566C634.25 39.2569 634.25 39.2572 634.25 39.2575C634.25 39.2578 634.25 39.2581 634.25 39.2584C634.25 39.2587 634.25 39.259 634.25 39.2593C634.25 39.2596 634.25 39.2599 634.25 39.2603C634.25 39.2606 634.25 39.2609 634.25 39.2612C634.25 39.2615 634.25 39.2618 634.25 39.2621C634.25 39.2624 634.25 39.2627 634.25 39.263C634.25 39.2633 634.25 39.2636 634.25 39.2639C634.25 39.2642 634.25 39.2645 634.25 39.2648C634.25 39.2651 634.25 39.2654 634.25 39.2657C634.25 39.2661 634.25 39.2664 634.25 39.2667C634.25 39.267 634.25 39.2673 634.25 39.2676C634.25 39.2679 634.25 39.2682 634.25 39.2685C634.25 39.2688 634.25 39.2691 634.25 39.2694C634.25 39.2697 634.25 39.27 634.25 39.2703C634.25 39.2706 634.25 39.2709 634.25 39.2712C634.25 39.2715 634.25 39.2719 634.25 39.2722C634.25 39.2725 634.25 39.2728 634.25 39.2731C634.25 39.2734 634.25 39.2737 634.25 39.274C634.25 39.2743 634.25 39.2746 634.25 39.2749C634.25 39.2752 634.25 39.2755 634.25 39.2758C634.25 39.2761 634.25 39.2764 634.25 39.2767C634.25 39.277 634.25 39.2773 634.25 39.2776C634.25 39.278 634.25 39.2783 634.25 39.2786C634.25 39.2789 634.25 39.2792 634.25 39.2795C634.25 39.2798 634.25 39.2801 634.25 39.2804C634.25 39.2807 634.25 39.281 634.25 39.2813C634.25 39.2816 634.25 39.2819 634.25 39.2822C634.25 39.2825 634.25 39.2828 634.25 39.2831C634.25 39.2834 634.25 39.2838 634.25 39.2841C634.25 39.2844 634.25 39.2847 634.25 39.285C634.25 39.2853 634.25 39.2856 634.25 39.2859C634.25 39.2862 634.25 39.2865 634.25 39.2868C634.25 39.2871 634.25 39.2874 634.25 39.2877C634.25 39.288 634.25 39.2883 634.25 39.2886C634.25 39.2889 634.25 39.2892 634.25 39.2896C634.25 39.2899 634.25 39.2902 634.25 39.2905C634.25 39.2908 634.25 39.2911 634.25 39.2914C634.25 39.2917 634.25 39.292 634.25 39.2923C634.25 39.2926 634.25 39.2929 634.25 39.2932C634.25 39.2935 634.25 39.2938 634.25 39.2941C634.25 39.2944 634.25 39.2947 634.25 39.295C634.25 39.2953 634.25 39.2957 634.25 39.296C634.25 39.2963 634.25 39.2966 634.25 39.2969H648.25C648.25 39.2966 648.25 39.2963 648.25 39.296C648.25 39.2957 648.25 39.2953 648.25 39.295C648.25 39.2947 648.25 39.2944 648.25 39.2941C648.25 39.2938 648.25 39.2935 648.25 39.2932C648.25 39.2929 648.25 39.2926 648.25 39.2923C648.25 39.292 648.25 39.2917 648.25 39.2914C648.25 39.2911 648.25 39.2908 648.25 39.2905C648.25 39.2902 648.25 39.2899 648.25 39.2896C648.25 39.2892 648.25 39.2889 648.25 39.2886C648.25 39.2883 648.25 39.288 648.25 39.2877C648.25 39.2874 648.25 39.2871 648.25 39.2868C648.25 39.2865 648.25 39.2862 648.25 39.2859C648.25 39.2856 648.25 39.2853 648.25 39.285C648.25 39.2847 648.25 39.2844 648.25 39.2841C648.25 39.2838 648.25 39.2834 648.25 39.2831C648.25 39.2828 648.25 39.2825 648.25 39.2822C648.25 39.2819 648.25 39.2816 648.25 39.2813C648.25 39.281 648.25 39.2807 648.25 39.2804C648.25 39.2801 648.25 39.2798 648.25 39.2795C648.25 39.2792 648.25 39.2789 648.25 39.2786C648.25 39.2783 648.25 39.278 648.25 39.2776C648.25 39.2773 648.25 39.277 648.25 39.2767C648.25 39.2764 648.25 39.2761 648.25 39.2758C648.25 39.2755 648.25 39.2752 648.25 39.2749C648.25 39.2746 648.25 39.2743 648.25 39.274C648.25 39.2737 648.25 39.2734 648.25 39.2731C648.25 39.2728 648.25 39.2725 648.25 39.2722C648.25 39.2719 648.25 39.2715 648.25 39.2712C648.25 39.2709 648.25 39.2706 648.25 39.2703C648.25 39.27 648.25 39.2697 648.25 39.2694C648.25 39.2691 648.25 39.2688 648.25 39.2685C648.25 39.2682 648.25 39.2679 648.25 39.2676C648.25 39.2673 648.25 39.267 648.25 39.2667C648.25 39.2664 648.25 39.2661 648.25 39.2657C648.25 39.2654 648.25 39.2651 648.25 39.2648C648.25 39.2645 648.25 39.2642 648.25 39.2639C648.25 39.2636 648.25 39.2633 648.25 39.263C648.25 39.2627 648.25 39.2624 648.25 39.2621C648.25 39.2618 648.25 39.2615 648.25 39.2612C648.25 39.2609 648.25 39.2606 648.25 39.2603C648.25 39.2599 648.25 39.2596 648.25 39.2593C648.25 39.259 648.25 39.2587 648.25 39.2584C648.25 39.2581 648.25 39.2578 648.25 39.2575C648.25 39.2572 648.25 39.2569 648.25 39.2566C648.25 39.2563 648.25 39.256 648.25 39.2557C648.25 39.2554 648.25 39.2551 648.25 39.2548C648.25 39.2545 648.25 39.2542 648.25 39.2538C648.25 39.2535 648.25 39.2532 648.25 39.2529C648.25 39.2526 648.25 39.2523 648.25 39.252C648.25 39.2517 648.25 39.2514 648.25 39.2511C648.25 39.2508 648.25 39.2505 648.25 39.2502C648.25 39.2499 648.25 39.2496 648.25 39.2493C648.25 39.249 648.25 39.2487 648.25 39.2484C648.25 39.248 648.25 39.2477 648.25 39.2474C648.25 39.2471 648.25 39.2468 648.25 39.2465C648.25 39.2462 648.25 39.2459 648.25 39.2456C648.25 39.2453 648.25 39.245 648.25 39.2447C648.25 39.2444 648.25 39.2441 648.25 39.2438C648.25 39.2435 648.25 39.2432 648.25 39.2429C648.25 39.2426 648.25 39.2422 648.25 39.2419C648.25 39.2416 648.25 39.2413 648.25 39.241C648.25 39.2407 648.25 39.2404 648.25 39.2401C648.25 39.2398 648.25 39.2395 648.25 39.2392C648.25 39.2389 648.25 39.2386 648.25 39.2383C648.25 39.238 648.25 39.2377 648.25 39.2374C648.25 39.2371 648.25 39.2368 648.25 39.2365C648.25 39.2361 648.25 39.2358 648.25 39.2355C648.25 39.2352 648.25 39.2349 648.25 39.2346C648.25 39.2343 648.25 39.234 648.25 39.2337C648.25 39.2334 648.25 39.2331 648.25 39.2328C648.25 39.2325 648.25 39.2322 648.25 39.2319C648.25 39.2316 648.25 39.2313 648.25 39.231C648.25 39.2307 648.25 39.2303 648.25 39.23C648.25 39.2297 648.25 39.2294 648.25 39.2291C648.25 39.2288 648.25 39.2285 648.25 39.2282C648.25 39.2279 648.25 39.2276 648.25 39.2273C648.25 39.227 648.25 39.2267 648.25 39.2264C648.25 39.2261 648.25 39.2258 648.25 39.2255C648.25 39.2252 648.25 39.2249 648.25 39.2245C648.25 39.2242 648.25 39.2239 648.25 39.2236C648.25 39.2233 648.25 39.223 648.25 39.2227C648.25 39.2224 648.25 39.2221 648.25 39.2218C648.25 39.2215 648.25 39.2212 648.25 39.2209C648.25 39.2206 648.25 39.2203 648.25 39.22C648.25 39.2197 648.25 39.2194 648.25 39.2191C648.25 39.2188 648.25 39.2184 648.25 39.2181C648.25 39.2178 648.25 39.2175 648.25 39.2172C648.25 39.2169 648.25 39.2166 648.25 39.2163C648.25 39.216 648.25 39.2157 648.25 39.2154C648.25 39.2151 648.25 39.2148 648.25 39.2145C648.25 39.2142 648.25 39.2139 648.25 39.2136C648.25 39.2133 648.25 39.213 648.25 39.2126C648.25 39.2123 648.25 39.212 648.25 39.2117C648.25 39.2114 648.25 39.2111 648.25 39.2108C648.25 39.2105 648.25 39.2102 648.25 39.2099C648.25 39.2096 648.25 39.2093 648.25 39.209C648.25 39.2087 648.25 39.2084 648.25 39.2081C648.25 39.2078 648.25 39.2075 648.25 39.2072C648.25 39.2068 648.25 39.2065 648.25 39.2062C648.25 39.2059 648.25 39.2056 648.25 39.2053C648.25 39.205 648.25 39.2047 648.25 39.2044C648.25 39.2041 648.25 39.2038 648.25 39.2035C648.25 39.2032 648.25 39.2029 648.25 39.2026C648.25 39.2023 648.25 39.202 648.25 39.2017C648.25 39.2014 648.25 39.201 648.25 39.2007C648.25 39.2004 648.25 39.2001 648.25 39.1998C648.25 39.1995 648.25 39.1992 648.25 39.1989C648.25 39.1986 648.25 39.1983 648.25 39.198C648.25 39.1977 648.25 39.1974 648.25 39.1971C648.25 39.1968 648.25 39.1965 648.25 39.1962C648.25 39.1959 648.25 39.1956 648.25 39.1953C648.25 39.1949 648.25 39.1946 648.25 39.1943C648.25 39.194 648.25 39.1937 648.25 39.1934C648.25 39.1931 648.25 39.1928 648.25 39.1925C648.25 39.1922 648.25 39.1919 648.25 39.1916C648.25 39.1913 648.25 39.191 648.25 39.1907C648.25 39.1904 648.25 39.1901 648.25 39.1898C648.25 39.1895 648.25 39.1891 648.25 39.1888C648.25 39.1885 648.25 39.1882 648.25 39.1879C648.25 39.1876 648.25 39.1873 648.25 39.187C648.25 39.1867 648.25 39.1864 648.25 39.1861C648.25 39.1858 648.25 39.1855 648.25 39.1852C648.25 39.1849 648.25 39.1846 648.25 39.1843C648.25 39.184 648.25 39.1837 648.25 39.1833C648.25 39.183 648.25 39.1827 648.25 39.1824C648.25 39.1821 648.25 39.1818 648.25 39.1815C648.25 39.1812 648.25 39.1809 648.25 39.1806C648.25 39.1803 648.25 39.18 648.25 39.1797C648.25 39.1794 648.25 39.1791 648.25 39.1788C648.25 39.1785 648.25 39.1782 648.25 39.1779C648.25 39.1776 648.25 39.1772 648.25 39.1769C648.25 39.1766 648.25 39.1763 648.25 39.176C648.25 39.1757 648.25 39.1754 648.25 39.1751C648.25 39.1748 648.25 39.1745 648.25 39.1742C648.25 39.1739 648.25 39.1736 648.25 39.1733C648.25 39.173 648.25 39.1727 648.25 39.1724C648.25 39.1721 648.25 39.1718 648.25 39.1714C648.25 39.1711 648.25 39.1708 648.25 39.1705C648.25 39.1702 648.25 39.1699 648.25 39.1696C648.25 39.1693 648.25 39.169 648.25 39.1687C648.25 39.1684 648.25 39.1681 648.25 39.1678C648.25 39.1675 648.25 39.1672 648.25 39.1669C648.25 39.1666 648.25 39.1663 648.25 39.166C648.25 39.1656 648.25 39.1653 648.25 39.165C648.25 39.1647 648.25 39.1644 648.25 39.1641C648.25 39.1638 648.25 39.1635 648.25 39.1632C648.25 39.1629 648.25 39.1626 648.25 39.1623C648.25 39.162 648.25 39.1617 648.25 39.1614C648.25 39.1611 648.25 39.1608 648.25 39.1605C648.25 39.1602 648.25 39.1599 648.25 39.1595C648.25 39.1592 648.25 39.1589 648.25 39.1586C648.25 39.1583 648.25 39.158 648.25 39.1577C648.25 39.1574 648.25 39.1571 648.25 39.1568C648.25 39.1565 648.25 39.1562 648.25 39.1559C648.25 39.1556 648.25 39.1553 648.25 39.155C648.25 39.1547 648.25 39.1544 648.25 39.1541C648.25 39.1537 648.25 39.1534 648.25 39.1531C648.25 39.1528 648.25 39.1525 648.25 39.1522C648.25 39.1519 648.25 39.1516 648.25 39.1513C648.25 39.151 648.25 39.1507 648.25 39.1504C648.25 39.1501 648.25 39.1498 648.25 39.1495C648.25 39.1492 648.25 39.1489 648.25 39.1486C648.25 39.1483 648.25 39.1479 648.25 39.1476C648.25 39.1473 648.25 39.147 648.25 39.1467C648.25 39.1464 648.25 39.1461 648.25 39.1458C648.25 39.1455 648.25 39.1452 648.25 39.1449C648.25 39.1446 648.25 39.1443 648.25 39.144C648.25 39.1437 648.25 39.1434 648.25 39.1431C648.25 39.1428 648.25 39.1425 648.25 39.1422C648.25 39.1418 648.25 39.1415 648.25 39.1412C648.25 39.1409 648.25 39.1406 648.25 39.1403C648.25 39.14 648.25 39.1397 648.25 39.1394C648.25 39.1391 648.25 39.1388 648.25 39.1385C648.25 39.1382 648.25 39.1379 648.25 39.1376C648.25 39.1373 648.25 39.137 648.25 39.1367C648.25 39.1364 648.25 39.136 648.25 39.1357C648.25 39.1354 648.25 39.1351 648.25 39.1348C648.25 39.1345 648.25 39.1342 648.25 39.1339C648.25 39.1336 648.25 39.1333 648.25 39.133C648.25 39.1327 648.25 39.1324 648.25 39.1321C648.25 39.1318 648.25 39.1315 648.25 39.1312C648.25 39.1309 648.25 39.1306 648.25 39.1302C648.25 39.1299 648.25 39.1296 648.25 39.1293C648.25 39.129 648.25 39.1287 648.25 39.1284C648.25 39.1281 648.25 39.1278 648.25 39.1275C648.25 39.1272 648.25 39.1269 648.25 39.1266C648.25 39.1263 648.25 39.126 648.25 39.1257C648.25 39.1254 648.25 39.1251 648.25 39.1248C648.25 39.1245 648.25 39.1241 648.25 39.1238C648.25 39.1235 648.25 39.1232 648.25 39.1229C648.25 39.1226 648.25 39.1223 648.25 39.122C648.25 39.1217 648.25 39.1214 648.25 39.1211C648.25 39.1208 648.25 39.1205 648.25 39.1202C648.25 39.1199 648.25 39.1196 648.25 39.1193C648.25 39.119 648.25 39.1187 648.25 39.1183C648.25 39.118 648.25 39.1177 648.25 39.1174C648.25 39.1171 648.25 39.1168 648.25 39.1165C648.25 39.1162 648.25 39.1159 648.25 39.1156C648.25 39.1153 648.25 39.115 648.25 39.1147C648.25 39.1144 648.25 39.1141 648.25 39.1138C648.25 39.1135 648.25 39.1132 648.25 39.1129C648.25 39.1125 648.25 39.1122 648.25 39.1119C648.25 39.1116 648.25 39.1113 648.25 39.111C648.25 39.1107 648.25 39.1104 648.25 39.1101C648.25 39.1098 648.25 39.1095 648.25 39.1092C648.25 39.1089 648.25 39.1086 648.25 39.1083C648.25 39.108 648.25 39.1077 648.25 39.1074C648.25 39.1071 648.25 39.1068 648.25 39.1064C648.25 39.1061 648.25 39.1058 648.25 39.1055C648.25 39.1052 648.25 39.1049 648.25 39.1046C648.25 39.1043 648.25 39.104 648.25 39.1037C648.25 39.1034 648.25 39.1031 648.25 39.1028C648.25 39.1025 648.25 39.1022 648.25 39.1019C648.25 39.1016 648.25 39.1013 648.25 39.101C648.25 39.1006 648.25 39.1003 648.25 39.1C648.25 39.0997 648.25 39.0994 648.25 39.0991C648.25 39.0988 648.25 39.0985 648.25 39.0982C648.25 39.0979 648.25 39.0976 648.25 39.0973C648.25 39.097 648.25 39.0967 648.25 39.0964C648.25 39.0961 648.25 39.0958 648.25 39.0955C648.25 39.0952 648.25 39.0948 648.25 39.0945C648.25 39.0942 648.25 39.0939 648.25 39.0936C648.25 39.0933 648.25 39.093 648.25 39.0927C648.25 39.0924 648.25 39.0921 648.25 39.0918C648.25 39.0915 648.25 39.0912 648.25 39.0909C648.25 39.0906 648.25 39.0903 648.25 39.09C648.25 39.0897 648.25 39.0894 648.25 39.0891C648.25 39.0887 648.25 39.0884 648.25 39.0881C648.25 39.0878 648.25 39.0875 648.25 39.0872C648.25 39.0869 648.25 39.0866 648.25 39.0863C648.25 39.086 648.25 39.0857 648.25 39.0854C648.25 39.0851 648.25 39.0848 648.25 39.0845C648.25 39.0842 648.25 39.0839 648.25 39.0836C648.25 39.0833 648.25 39.0829 648.25 39.0826C648.25 39.0823 648.25 39.082 648.25 39.0817C648.25 39.0814 648.25 39.0811 648.25 39.0808C648.25 39.0805 648.25 39.0802 648.25 39.0799C648.25 39.0796 648.25 39.0793 648.25 39.079C648.25 39.0787 648.25 39.0784 648.25 39.0781C648.25 39.0778 648.25 39.0775 648.25 39.0771C648.25 39.0768 648.25 39.0765 648.25 39.0762C648.25 39.0759 648.25 39.0756 648.25 39.0753C648.25 39.075 648.25 39.0747 648.25 39.0744C648.25 39.0741 648.25 39.0738 648.25 39.0735C648.25 39.0732 648.25 39.0729 648.25 39.0726C648.25 39.0723 648.25 39.072 648.25 39.0717C648.25 39.0714 648.25 39.071 648.25 39.0707C648.25 39.0704 648.25 39.0701 648.25 39.0698C648.25 39.0695 648.25 39.0692 648.25 39.0689C648.25 39.0686 648.25 39.0683 648.25 39.068C648.25 39.0677 648.25 39.0674 648.25 39.0671C648.25 39.0668 648.25 39.0665 648.25 39.0662C648.25 39.0659 648.25 39.0656 648.25 39.0652C648.25 39.0649 648.25 39.0646 648.25 39.0643C648.25 39.064 648.25 39.0637 648.25 39.0634C648.25 39.0631 648.25 39.0628 648.25 39.0625C648.25 39.0622 648.25 39.0619 648.25 39.0616C648.25 39.0613 648.25 39.061 648.25 39.0607C648.25 39.0604 648.25 39.0601 648.25 39.0598C648.25 39.0594 648.25 39.0591 648.25 39.0588C648.25 39.0585 648.25 39.0582 648.25 39.0579C648.25 39.0576 648.25 39.0573 648.25 39.057C648.25 39.0567 648.25 39.0564 648.25 39.0561C648.25 39.0558 648.25 39.0555 648.25 39.0552C648.25 39.0549 648.25 39.0546 648.25 39.0543C648.25 39.054 648.25 39.0536 648.25 39.0533C648.25 39.053 648.25 39.0527 648.25 39.0524C648.25 39.0521 648.25 39.0518 648.25 39.0515C648.25 39.0512 648.25 39.0509 648.25 39.0506C648.25 39.0503 648.25 39.05 648.25 39.0497C648.25 39.0494 648.25 39.0491 648.25 39.0488C648.25 39.0485 648.25 39.0482 648.25 39.0479C648.25 39.0475 648.25 39.0472 648.25 39.0469C648.25 39.0466 648.25 39.0463 648.25 39.046C648.25 39.0457 648.25 39.0454 648.25 39.0451C648.25 39.0448 648.25 39.0445 648.25 39.0442C648.25 39.0439 648.25 39.0436 648.25 39.0433C648.25 39.043 648.25 39.0427 648.25 39.0424C648.25 39.0421 648.25 39.0417 648.25 39.0414C648.25 39.0411 648.25 39.0408 648.25 39.0405C648.25 39.0402 648.25 39.0399 648.25 39.0396C648.25 39.0393 648.25 39.039 648.25 39.0387C648.25 39.0384 648.25 39.0381 648.25 39.0378C648.25 39.0375 648.25 39.0372 648.25 39.0369C648.25 39.0366 648.25 39.0363 648.25 39.0359C648.25 39.0356 648.25 39.0353 648.25 39.035C648.25 39.0347 648.25 39.0344 648.25 39.0341C648.25 39.0338 648.25 39.0335 648.25 39.0332C648.25 39.0329 648.25 39.0326 648.25 39.0323C648.25 39.032 648.25 39.0317 648.25 39.0314C648.25 39.0311 648.25 39.0308 648.25 39.0305C648.25 39.0302 648.25 39.0298 648.25 39.0295C648.25 39.0292 648.25 39.0289 648.25 39.0286C648.25 39.0283 648.25 39.028 648.25 39.0277C648.25 39.0274 648.25 39.0271 648.25 39.0268C648.25 39.0265 648.25 39.0262 648.25 39.0259C648.25 39.0256 648.25 39.0253 648.25 39.025C648.25 39.0247 648.25 39.0244 648.25 39.024C648.25 39.0237 648.25 39.0234 648.25 39.0231C648.25 39.0228 648.25 39.0225 648.25 39.0222C648.25 39.0219 648.25 39.0216 648.25 39.0213C648.25 39.021 648.25 39.0207 648.25 39.0204C648.25 39.0201 648.25 39.0198 648.25 39.0195C648.25 39.0192 648.25 39.0189 648.25 39.0186C648.25 39.0182 648.25 39.0179 648.25 39.0176C648.25 39.0173 648.25 39.017 648.25 39.0167C648.25 39.0164 648.25 39.0161 648.25 39.0158C648.25 39.0155 648.25 39.0152 648.25 39.0149C648.25 39.0146 648.25 39.0143 648.25 39.014C648.25 39.0137 648.25 39.0134 648.25 39.0131C648.25 39.0128 648.25 39.0125 648.25 39.0121C648.25 39.0118 648.25 39.0115 648.25 39.0112C648.25 39.0109 648.25 39.0106 648.25 39.0103C648.25 39.01 648.25 39.0097 648.25 39.0094C648.25 39.0091 648.25 39.0088 648.25 39.0085C648.25 39.0082 648.25 39.0079 648.25 39.0076C648.25 39.0073 648.25 39.007 648.25 39.0067C648.25 39.0063 648.25 39.006 648.25 39.0057C648.25 39.0054 648.25 39.0051 648.25 39.0048C648.25 39.0045 648.25 39.0042 648.25 39.0039C648.25 39.0036 648.25 39.0033 648.25 39.003C648.25 39.0027 648.25 39.0024 648.25 39.0021C648.25 39.0018 648.25 39.0015 648.25 39.0012C648.25 39.0009 648.25 39.0005 648.25 39.0002C648.25 38.9999 648.25 38.9996 648.25 38.9993C648.25 38.999 648.25 38.9987 648.25 38.9984C648.25 38.9981 648.25 38.9978 648.25 38.9975C648.25 38.9972 648.25 38.9969 648.25 38.9966C648.25 38.9963 648.25 38.996 648.25 38.9957C648.25 38.9954 648.25 38.9951 648.25 38.9948C648.25 38.9944 648.25 38.9941 648.25 38.9938C648.25 38.9935 648.25 38.9932 648.25 38.9929C648.25 38.9926 648.25 38.9923 648.25 38.992C648.25 38.9917 648.25 38.9914 648.25 38.9911C648.25 38.9908 648.25 38.9905 648.25 38.9902C648.25 38.9899 648.25 38.9896 648.25 38.9893C648.25 38.989 648.25 38.9886 648.25 38.9883C648.25 38.988 648.25 38.9877 648.25 38.9874C648.25 38.9871 648.25 38.9868 648.25 38.9865C648.25 38.9862 648.25 38.9859 648.25 38.9856C648.25 38.9853 648.25 38.985 648.25 38.9847C648.25 38.9844 648.25 38.9841 648.25 38.9838C648.25 38.9835 648.25 38.9832 648.25 38.9828C648.25 38.9825 648.25 38.9822 648.25 38.9819C648.25 38.9816 648.25 38.9813 648.25 38.981C648.25 38.9807 648.25 38.9804 648.25 38.9801C648.25 38.9798 648.25 38.9795 648.25 38.9792C648.25 38.9789 648.25 38.9786 648.25 38.9783C648.25 38.978 648.25 38.9777 648.25 38.9774C648.25 38.9771 648.25 38.9767 648.25 38.9764C648.25 38.9761 648.25 38.9758 648.25 38.9755C648.25 38.9752 648.25 38.9749 648.25 38.9746C648.25 38.9743 648.25 38.974 648.25 38.9737C648.25 38.9734 648.25 38.9731 648.25 38.9728C648.25 38.9725 648.25 38.9722 648.25 38.9719C648.25 38.9716 648.25 38.9713 648.25 38.9709C648.25 38.9706 648.25 38.9703 648.25 38.97C648.25 38.9697 648.25 38.9694 648.25 38.9691C648.25 38.9688 648.25 38.9685 648.25 38.9682C648.25 38.9679 648.25 38.9676 648.25 38.9673C648.25 38.967 648.25 38.9667 648.25 38.9664C648.25 38.9661 648.25 38.9658 648.25 38.9655C648.25 38.9651 648.25 38.9648 648.25 38.9645C648.25 38.9642 648.25 38.9639 648.25 38.9636C648.25 38.9633 648.25 38.963 648.25 38.9627C648.25 38.9624 648.25 38.9621 648.25 38.9618C648.25 38.9615 648.25 38.9612 648.25 38.9609C648.25 38.9606 648.25 38.9603 648.25 38.96C648.25 38.9597 648.25 38.9594 648.25 38.959C648.25 38.9587 648.25 38.9584 648.25 38.9581C648.25 38.9578 648.25 38.9575 648.25 38.9572C648.25 38.9569 648.25 38.9566 648.25 38.9563C648.25 38.956 648.25 38.9557 648.25 38.9554C648.25 38.9551 648.25 38.9548 648.25 38.9545C648.25 38.9542 648.25 38.9539 648.25 38.9536C648.25 38.9532 648.25 38.9529 648.25 38.9526C648.25 38.9523 648.25 38.952 648.25 38.9517C648.25 38.9514 648.25 38.9511 648.25 38.9508C648.25 38.9505 648.25 38.9502 648.25 38.9499C648.25 38.9496 648.25 38.9493 648.25 38.949C648.25 38.9487 648.25 38.9484 648.25 38.9481C648.25 38.9478 648.25 38.9474 648.25 38.9471C648.25 38.9468 648.25 38.9465 648.25 38.9462C648.25 38.9459 648.25 38.9456 648.25 38.9453C648.25 38.945 648.25 38.9447 648.25 38.9444C648.25 38.9441 648.25 38.9438 648.25 38.9435C648.25 38.9432 648.25 38.9429 648.25 38.9426C648.25 38.9423 648.25 38.942 648.25 38.9417C648.25 38.9413 648.25 38.941 648.25 38.9407C648.25 38.9404 648.25 38.9401 648.25 38.9398C648.25 38.9395 648.25 38.9392 648.25 38.9389C648.25 38.9386 648.25 38.9383 648.25 38.938C648.25 38.9377 648.25 38.9374 648.25 38.9371C648.25 38.9368 648.25 38.9365 648.25 38.9362C648.25 38.9359 648.25 38.9355 648.25 38.9352C648.25 38.9349 648.25 38.9346 648.25 38.9343C648.25 38.934 648.25 38.9337 648.25 38.9334C648.25 38.9331 648.25 38.9328 648.25 38.9325C648.25 38.9322 648.25 38.9319 648.25 38.9316C648.25 38.9313 648.25 38.931 648.25 38.9307C648.25 38.9304 648.25 38.9301 648.25 38.9297C648.25 38.9294 648.25 38.9291 648.25 38.9288C648.25 38.9285 648.25 38.9282 648.25 38.9279C648.25 38.9276 648.25 38.9273 648.25 38.927C648.25 38.9267 648.25 38.9264 648.25 38.9261C648.25 38.9258 648.25 38.9255 648.25 38.9252C648.25 38.9249 648.25 38.9246 648.25 38.9243C648.25 38.924 648.25 38.9236 648.25 38.9233C648.25 38.923 648.25 38.9227 648.25 38.9224C648.25 38.9221 648.25 38.9218 648.25 38.9215C648.25 38.9212 648.25 38.9209 648.25 38.9206C648.25 38.9203 648.25 38.92 648.25 38.9197C648.25 38.9194 648.25 38.9191 648.25 38.9188C648.25 38.9185 648.25 38.9182 648.25 38.9178C648.25 38.9175 648.25 38.9172 648.25 38.9169C648.25 38.9166 648.25 38.9163 648.25 38.916C648.25 38.9157 648.25 38.9154 648.25 38.9151C648.25 38.9148 648.25 38.9145 648.25 38.9142C648.25 38.9139 648.25 38.9136 648.25 38.9133C648.25 38.913 648.25 38.9127 648.25 38.9124C648.25 38.912 648.25 38.9117 648.25 38.9114C648.25 38.9111 648.25 38.9108 648.25 38.9105C648.25 38.9102 648.25 38.9099 648.25 38.9096C648.25 38.9093 648.25 38.909 648.25 38.9087C648.25 38.9084 648.25 38.9081 648.25 38.9078C648.25 38.9075 648.25 38.9072 648.25 38.9069C648.25 38.9066 648.25 38.9062 648.25 38.9059C648.25 38.9056 648.25 38.9053 648.25 38.905C648.25 38.9047 648.25 38.9044 648.25 38.9041C648.25 38.9038 648.25 38.9035 648.25 38.9032C648.25 38.9029 648.25 38.9026 648.25 38.9023C648.25 38.902 648.25 38.9017 648.25 38.9014C648.25 38.9011 648.25 38.9008 648.25 38.9005C648.25 38.9001 648.25 38.8998 648.25 38.8995C648.25 38.8992 648.25 38.8989 648.25 38.8986C648.25 38.8983 648.25 38.898 648.25 38.8977C648.25 38.8974 648.25 38.8971 648.25 38.8968C648.25 38.8965 648.25 38.8962 648.25 38.8959C648.25 38.8956 648.25 38.8953 648.25 38.895C648.25 38.8947 648.25 38.8943 648.25 38.894C648.25 38.8937 648.25 38.8934 648.25 38.8931C648.25 38.8928 648.25 38.8925 648.25 38.8922C648.25 38.8919 648.25 38.8916 648.25 38.8913C648.25 38.891 648.25 38.8907 648.25 38.8904C648.25 38.8901 648.25 38.8898 648.25 38.8895C648.25 38.8892 648.25 38.8889 648.25 38.8885C648.25 38.8882 648.25 38.8879 648.25 38.8876C648.25 38.8873 648.25 38.887 648.25 38.8867C648.25 38.8864 648.25 38.8861 648.25 38.8858C648.25 38.8855 648.25 38.8852 648.25 38.8849C648.25 38.8846 648.25 38.8843 648.25 38.884C648.25 38.8837 648.25 38.8834 648.25 38.8831C648.25 38.8828 648.25 38.8824 648.25 38.8821C648.25 38.8818 648.25 38.8815 648.25 38.8812C648.25 38.8809 648.25 38.8806 648.25 38.8803C648.25 38.88 648.25 38.8797 648.25 38.8794C648.25 38.8791 648.25 38.8788 648.25 38.8785C648.25 38.8782 648.25 38.8779 648.25 38.8776C648.25 38.8773 648.25 38.877 648.25 38.8766C648.25 38.8763 648.25 38.876 648.25 38.8757C648.25 38.8754 648.25 38.8751 648.25 38.8748C648.25 38.8745 648.25 38.8742 648.25 38.8739C648.25 38.8736 648.25 38.8733 648.25 38.873C648.25 38.8727 648.25 38.8724 648.25 38.8721C648.25 38.8718 648.25 38.8715 648.25 38.8712C648.25 38.8708 648.25 38.8705 648.25 38.8702C648.25 38.8699 648.25 38.8696 648.25 38.8693C648.25 38.869 648.25 38.8687 648.25 38.8684C648.25 38.8681 648.25 38.8678 648.25 38.8675C648.25 38.8672 648.25 38.8669 648.25 38.8666C648.25 38.8663 648.25 38.866 648.25 38.8657C648.25 38.8654 648.25 38.8651 648.25 38.8647C648.25 38.8644 648.25 38.8641 648.25 38.8638C648.25 38.8635 648.25 38.8632 648.25 38.8629C648.25 38.8626 648.25 38.8623 648.25 38.862C648.25 38.8617 648.25 38.8614 648.25 38.8611C648.25 38.8608 648.25 38.8605 648.25 38.8602C648.25 38.8599 648.25 38.8596 648.25 38.8593C648.25 38.8589 648.25 38.8586 648.25 38.8583C648.25 38.858 648.25 38.8577 648.25 38.8574C648.25 38.8571 648.25 38.8568 648.25 38.8565C648.25 38.8562 648.25 38.8559 648.25 38.8556C648.25 38.8553 648.25 38.855 648.25 38.8547C648.25 38.8544 648.25 38.8541 648.25 38.8538C648.25 38.8535 648.25 38.8531 648.25 38.8528C648.25 38.8525 648.25 38.8522 648.25 38.8519C648.25 38.8516 648.25 38.8513 648.25 38.851C648.25 38.8507 648.25 38.8504 648.25 38.8501C648.25 38.8498 648.25 38.8495 648.25 38.8492C648.25 38.8489 648.25 38.8486 648.25 38.8483C648.25 38.848 648.25 38.8477 648.25 38.8474C648.25 38.847 648.25 38.8467 648.25 38.8464C648.25 38.8461 648.25 38.8458 648.25 38.8455C648.25 38.8452 648.25 38.8449 648.25 38.8446C648.25 38.8443 648.25 38.844 648.25 38.8437C648.25 38.8434 648.25 38.8431 648.25 38.8428C648.25 38.8425 648.25 38.8422 648.25 38.8419C648.25 38.8416 648.25 38.8412 648.25 38.8409C648.25 38.8406 648.25 38.8403 648.25 38.84C648.25 38.8397 648.25 38.8394 648.25 38.8391C648.25 38.8388 648.25 38.8385 648.25 38.8382C648.25 38.8379 648.25 38.8376 648.25 38.8373C648.25 38.837 648.25 38.8367 648.25 38.8364C648.25 38.8361 648.25 38.8358 648.25 38.8354C648.25 38.8351 648.25 38.8348 648.25 38.8345C648.25 38.8342 648.25 38.8339 648.25 38.8336C648.25 38.8333 648.25 38.833 648.25 38.8327C648.25 38.8324 648.25 38.8321 648.25 38.8318C648.25 38.8315 648.25 38.8312 648.25 38.8309C648.25 38.8306 648.25 38.8303 648.25 38.83C648.25 38.8297 648.25 38.8293 648.25 38.829C648.25 38.8287 648.25 38.8284 648.25 38.8281H634.25ZM634.25 39.2969V88H648.25V39.2969H634.25ZM641.25 81H618.891V95H641.25V81ZM625.891 88V38.3125H611.891V88H625.891ZM618.891 31.3125H607.828V45.3125H618.891V31.3125ZM600.828 38.3125V88H614.828V38.3125H600.828ZM607.828 81H585.469V95H607.828V81Z" fill="black"/>
</svg>
